<?xml version="1.0" encoding="utf-8"?>
<!-- Generator: Adobe Illustrator 21.1.0, SVG Export Plug-In . SVG Version: 6.00 Build 0)  -->
<svg version="1.1"
	 id="Accenture_Interactive" inkscape:version="0.92.1 r15371" sodipodi:docname="Accenture-Digital-Interactive-Wordmark-black.svg" xmlns:cc="http://creativecommons.org/ns#" xmlns:dc="http://purl.org/dc/elements/1.1/" xmlns:inkscape="http://www.inkscape.org/namespaces/inkscape" xmlns:rdf="http://www.w3.org/1999/02/22-rdf-syntax-ns#" xmlns:sodipodi="http://sodipodi.sourceforge.net/DTD/sodipodi-0.dtd" xmlns:svg="http://www.w3.org/2000/svg"
	 xmlns="http://www.w3.org/2000/svg" xmlns:xlink="http://www.w3.org/1999/xlink" x="0px" y="0px" viewBox="0 0 266 60"
	 style="enable-background:new 0 0 266 60;" xml:space="preserve">
<style type="text/css">
	.st0{fill:#FF9500;}
</style>
<sodipodi:namedview  bordercolor="#666666" borderopacity="1" gridtolerance="10" guidetolerance="10" id="namedview105" inkscape:current-layer="Accenture_Interactive" inkscape:cx="146.49421" inkscape:cy="31.272988" inkscape:pageopacity="0" inkscape:pageshadow="2" inkscape:window-height="801" inkscape:window-maximized="1" inkscape:window-width="1536" inkscape:window-x="-8" inkscape:window-y="-8" inkscape:zoom="4.0392157" objecttolerance="10" pagecolor="#ffffff" showgrid="false">
	</sodipodi:namedview>
<g id="g102" transform="matrix(0.6664982,0,0,0.69065771,-131.08377,-180.71748)">
	<g id="g28">
		<path id="path10" inkscape:connector-curvature="0" d="M211.1,291.6h8.6l9.4,29h-6.8l-2-6.4h-10.5l-2,6.4h-6.2L211.1,291.6z
			 M211.1,309.4h7.7l-3.8-12.5L211.1,309.4z"/>
		<path id="path12" inkscape:connector-curvature="0" d="M229.5,310.2v-0.3c0-6.9,4.9-11,10.9-11c4.9,0,9.4,2.1,10,8.2h-5.6
			c-0.4-2.5-1.9-3.6-4.3-3.6c-3,0-5.1,2.3-5.1,6.3v0.3c0,4.3,1.9,6.4,5.2,6.4c2.4,0,4.3-1.4,4.5-4.1h5.3c-0.3,5-4,8.5-10.1,8.5
			C234.2,321,229.5,317.1,229.5,310.2z"/>
		<path id="path14" inkscape:connector-curvature="0" d="M251.9,310.2v-0.3c0-6.9,4.9-11,10.9-11c4.9,0,9.4,2.1,10,8.2h-5.6
			c-0.4-2.5-1.9-3.6-4.3-3.6c-3,0-5.1,2.3-5.1,6.3v0.3c0,4.3,1.9,6.4,5.2,6.4c2.4,0,4.3-1.4,4.5-4.1h5.3c-0.3,5-4,8.5-10.1,8.5
			C256.6,321,251.9,317.1,251.9,310.2L251.9,310.2z"/>
		<path id="path16" inkscape:connector-curvature="0" d="M274.3,310.2v-0.3c0-6.7,4.7-11,10.9-11c5.5,0,10.3,3.2,10.3,10.8v1.6
			h-15.3c0.2,3.5,2.1,5.6,5.3,5.6c2.7,0,4.1-1.2,4.4-3h5.6c-0.7,4.6-4.3,7.1-10.1,7.1C278.9,321,274.3,317,274.3,310.2L274.3,310.2z
			 M289.8,307.7c-0.2-3.2-1.8-4.7-4.6-4.7c-2.6,0-4.4,1.7-4.9,4.7H289.8z"/>
		<path id="path18" inkscape:connector-curvature="0" d="M298.4,299.4h5.9v3.4c1.1-2.1,3.4-3.9,6.9-3.9c4.2,0,7.1,2.5,7.1,8.2v13.5
			h-5.9v-12.6c0-2.9-1.1-4.3-3.7-4.3c-2.5,0-4.4,1.5-4.4,4.7v12.2h-5.9L298.4,299.4L298.4,299.4z"/>
		<path id="path20" inkscape:connector-curvature="0" d="M323,314.3v-10.7h-2.7v-4.2h2.7v-4.6h5.8v4.6h4.5v4.2h-4.5v10.2
			c0,1.7,0.9,2.5,2.4,2.5c0.9,0,1.5-0.1,2.2-0.4v4.5c-0.8,0.3-2,0.6-3.6,0.6C325.4,321,323,318.7,323,314.3L323,314.3z"/>
		<path id="path22" inkscape:connector-curvature="0" d="M335.6,313v-13.7h5.8v12.8c0,2.9,1.2,4.3,3.7,4.3c2.5,0,4.4-1.5,4.4-4.7
			v-12.4h5.8v21.2h-5.8v-3.3c-1.1,2.1-3.2,3.8-6.7,3.8C338.7,321,335.6,318.6,335.6,313z"/>
		<path id="path24" inkscape:connector-curvature="0" d="M359.3,299.4h5.9v4.1c1.3-2.8,3.4-4.3,6.9-4.4v5.5c-4.3,0-6.9,1.4-6.9,5.4
			v10.6h-5.9V299.4z"/>
		<path id="path26" inkscape:connector-curvature="0" d="M373,310.2v-0.3c0-6.7,4.7-11,10.9-11c5.5,0,10.3,3.2,10.3,10.8v1.6H379
			c0.2,3.5,2.1,5.6,5.3,5.6c2.7,0,4.1-1.2,4.4-3h5.6c-0.7,4.6-4.3,7.1-10.1,7.1C377.7,321,373,317,373,310.2L373,310.2z
			 M388.5,307.7c-0.2-3.2-1.8-4.7-4.6-4.7c-2.6,0-4.4,1.7-4.9,4.7H388.5z"/>
	</g>
	<g id="g100">
		<path id="path78" inkscape:connector-curvature="0" class="st0" d="M406.2,291.6h3.5v29h-3.5V291.6z"/>
		<path id="path80" inkscape:connector-curvature="0" class="st0" d="M416,299.3h3.4v3.4c1-2,3.3-3.7,6.8-3.7c4.4,0,7.5,2.4,7.5,8.6
			v13h-3.4v-13.3c0-3.7-1.6-5.4-5-5.4c-3.1,0-5.9,2-5.9,5.8v12.8H416L416,299.3L416,299.3z"/>
		<path id="path82" inkscape:connector-curvature="0" class="st0" d="M439.7,315.2v-13.1h-3v-2.8h3v-4.8h3.4v4.8h4.9v2.8H443v12.7
			c0,2.1,0.9,3.1,2.6,3.1c1.1,0,1.9-0.2,2.6-0.4v2.8c-0.7,0.2-1.5,0.4-2.9,0.4C441.5,320.8,439.7,318.6,439.7,315.2z"/>
		<path id="path84" inkscape:connector-curvature="0" class="st0" d="M450.2,310.2v-0.3c0-6.4,4.1-10.9,9.9-10.9
			c4.9,0,9.5,3,9.5,10.5v1.1h-16c0.2,4.8,2.5,7.5,6.8,7.5c3.3,0,5.2-1.2,5.6-3.7h3.4c-0.7,4.3-4.3,6.5-9,6.5
			C454.5,320.9,450.2,316.7,450.2,310.2L450.2,310.2z M466.3,307.9c-0.3-4.4-2.6-6.1-6.1-6.1c-3.4,0-5.8,2.4-6.3,6.1H466.3z"/>
		<path id="path86" inkscape:connector-curvature="0" class="st0" d="M474.1,299.3h3.4v3.8c1.3-2.4,3.2-4.1,7-4.2v3.2
			c-4.3,0.2-7,1.5-7,6.8v11.6h-3.4L474.1,299.3z"/>
		<path id="path88" inkscape:connector-curvature="0" class="st0" d="M486.4,314.7c0-4.9,5.2-6.6,10.6-6.6h3v-1.5
			c0-3.4-1.3-4.8-4.5-4.8c-2.9,0-4.5,1.2-4.9,3.8h-3.4c0.4-4.8,4.3-6.6,8.4-6.6c4.1,0,7.7,1.7,7.7,7.6v14h-3.4v-2.7
			c-1.6,2-3.5,3-6.6,3C489.6,320.9,486.4,319,486.4,314.7L486.4,314.7z M500.1,313.1v-2.6h-2.9c-4.3,0-7.4,1.1-7.4,4.2
			c0,2.2,1.1,3.6,4,3.6C497.4,318.2,500.1,316.4,500.1,313.1L500.1,313.1z"/>
		<path id="path90" inkscape:connector-curvature="0" class="st0" d="M507.6,310.2v-0.3c0-6.5,4.6-10.9,10.3-10.9
			c4.4,0,8.6,2,9.2,7.4h-3.3c-0.5-3.4-3-4.6-5.9-4.6c-3.9,0-6.8,3.1-6.8,8.1v0.3c0,5.2,2.8,7.9,6.9,7.9c3,0,5.7-1.7,6.1-5.2h3.1
			c-0.4,4.6-4.1,8-9.2,8C512.1,320.9,507.6,316.7,507.6,310.2L507.6,310.2z"/>
		<path id="path92" inkscape:connector-curvature="0" class="st0" d="M532.3,315.2v-13.1h-3v-2.8h3v-4.8h3.4v4.8h4.9v2.8h-4.9v12.7
			c0,2.1,0.9,3.1,2.6,3.1c1.1,0,1.9-0.2,2.6-0.4v2.8c-0.7,0.2-1.5,0.4-2.9,0.4C534.1,320.8,532.3,318.6,532.3,315.2z"/>
		<path id="path94" inkscape:connector-curvature="0" class="st0" d="M544.1,292.7c0-1.2,1-2.2,2.2-2.2c1.2,0,2.2,1,2.2,2.2
			c0,1.2-1,2.2-2.2,2.2S544.1,293.9,544.1,292.7z M544.7,299.3h3.4v21.2h-3.4V299.3z"/>
		<path id="path96" inkscape:connector-curvature="0" class="st0" d="M551.5,299.3h3.6l6.3,17.8l6.2-17.8h3.5l-7.6,21.2h-4.3
			L551.5,299.3z"/>
		<path id="path98" inkscape:connector-curvature="0" class="st0" d="M572.4,310.2v-0.3c0-6.4,4.1-10.9,9.9-10.9
			c4.9,0,9.5,3,9.5,10.5v1.1h-16c0.2,4.8,2.5,7.5,6.8,7.5c3.3,0,5.2-1.2,5.6-3.7h3.4c-0.7,4.3-4.3,6.5-9,6.5
			C576.7,320.9,572.4,316.7,572.4,310.2L572.4,310.2z M588.4,307.9c-0.3-4.4-2.6-6.1-6.1-6.1c-3.4,0-5.8,2.4-6.3,6.1H588.4z"/>
	</g>
</g>
</svg>
