<svg id="Layer_1" data-name="Layer 1" xmlns="http://www.w3.org/2000/svg" viewBox="0 0 141.73 41.68"><defs><style>.cls-1{fill:#242424;}.cls-1,.cls-2{fill-rule:evenodd;}.cls-2{fill:#0086ca;}</style></defs><title>arineo</title><path class="cls-1" d="M107.51,139.74V162H113V150.26c0-4.11,2.66-5.64,5.55-5.64a5.48,5.48,0,0,1,4,1.44l2.48-4.78a8.42,8.42,0,0,0-5.73-2.12c-2.25,0-4.55.4-6.27,3.15l-.4-2.57Zm25.08-.09V162h-5.5V139.65Zm-6-6.18c0,4.29,6.5,4.29,6.5,0s-6.5-4.29-6.5,0ZM159.44,162V150.3c0-7-4.19-10.92-9.43-10.92-2.8,0-5,1.13-7.31,3.34l-.36-3h-4.92V162h5.46V150.62c0-3.39,2.3-6.23,5.69-6.23s5.37,2.57,5.37,6V162Zm26.81-9.16c.85-9.16-3.79-13.76-11.24-13.76-7.22,0-11.82,4.87-11.82,11.64,0,7.13,4.56,11.86,12.23,11.86,3.38,0,7.22-1.17,9.56-3.61l-3.52-3.47c-1.26,1.31-3.92,2.08-6,2.08-3.88,0-6.28-2-6.64-4.74ZM169,148.27c.82-2.89,3.25-4.33,6.23-4.33,3.16,0,5.42,1.44,5.78,4.33Zm32-9c-7.09,0-11.51,5.24-11.51,11.6s4.33,11.59,11.55,11.59,11.6-5.18,11.6-11.59A11.25,11.25,0,0,0,201,139.29Zm0,5c3.7,0,6.05,3.25,6.05,6.59s-2,6.54-6.05,6.54-6-3.16-6-6.54S197,144.3,201,144.3Z" transform="translate(-70.87 -120.89)"/><path class="cls-2" d="M72.87,147.53a32.47,32.47,0,0,1,15.41,11.28,82.87,82.87,0,0,1,112.37-24.22,85.75,85.75,0,0,0-112.3,17.09,35.34,35.34,0,0,0-15.48-4.15Zm15.41-2.89a1.72,1.72,0,1,1-1.71,1.71A1.72,1.72,0,0,1,88.28,144.64Z" transform="translate(-70.87 -120.89)"/><path class="cls-1" d="M81,153.88a30.49,30.49,0,0,0-5.07-3.16l-5,11.27h6.45c1.73-3.82,2.82-6.22,3.66-8.11Zm-3.07-7.61a37.69,37.69,0,0,1,5.74,1.45c1-2.29,2.31-5.38,4.63-10.72,1.53,3.51,2.65,6.1,3.56,8.21,1.44-1.47,2.93-2.88,4.45-4.22l-4.76-10.63H85l-7.12,15.91Zm17.18,6.44c1,2.35,2.19,5,4.11,9.28h6.5l-6.28-14Q97.17,150.25,95.09,152.71Z" transform="translate(-70.87 -120.89)"/></svg>