<svg xmlns="http://www.w3.org/2000/svg" xmlns:xlink="http://www.w3.org/1999/xlink" viewBox="0 0 866 96.86"><defs><style>.a{fill:none;}.b{fill:#363534;}.c{clip-path:url(#a);}.d{fill:#96191d;}</style><clipPath id="a" transform="translate(0 0)"><rect class="a" width="866" height="96.86"/></clipPath></defs><title>arithnea-logo</title><path class="b" d="M99.58,57.58V.15H79.36L51.57,64.21c12.44-6.09,36.31-6.9,48-6.63Z" transform="translate(0 0)"/><g class="c"><path class="b" d="M40.82,90.46l-.33.77c-.63,1.52-1.38,3.14-2.2,5.58H99.58V59.58C76.45,63.26,51.36,70.32,40.82,90.46Z" transform="translate(0 0)"/><polygon class="d" points="0 0.15 0 96.81 19.71 96.81 61.6 0.15 0 0.15 0 0.15"/><path class="b" d="M143.86,58.65h42.87L165.3,7.8,143.86,58.65ZM116.8,96.86,159.82,0h11.71l42,96.86H202.85l-12.62-30.4H140.37l-12.92,30.4Z" transform="translate(0 0)"/><path class="b" d="M272.4,45.07A50.18,50.18,0,0,0,283.12,44a25.9,25.9,0,0,0,8.59-3.43,17.78,17.78,0,0,0,5.78-6,17.07,17.07,0,0,0,2.12-8.74,16.37,16.37,0,0,0-2.2-8.88,15.72,15.72,0,0,0-5.93-5.51A27.16,27.16,0,0,0,283,8.61a59.69,59.69,0,0,0-10-.81H240.18V45.07Zm-32.22,7.8v44l-10.34-.13V0h42.87q18.09,0,27.66,6T310,25.43q0,9.15-4.18,14.53T292.16,49.1a17.49,17.49,0,0,1,7.61,4.31,18.56,18.56,0,0,1,4.1,6.46,29.79,29.79,0,0,1,1.75,7.66c.25,2.69.43,5.3.53,7.81q.15,5.5.53,9.14a49.86,49.86,0,0,0,.91,5.92,12.78,12.78,0,0,0,1.3,3.57,5.63,5.63,0,0,0,1.82,2v.81l-11.4.13A16.33,16.33,0,0,1,297,90.13c-.45-2.87-.81-5.87-1.06-9s-.46-6.19-.61-9.15a47.49,47.49,0,0,0-.83-7.26,14.34,14.34,0,0,0-3-6.26,13.27,13.27,0,0,0-4.94-3.56,23.44,23.44,0,0,0-6.46-1.62,67.86,67.86,0,0,0-7.37-.4Z" transform="translate(0 0)"/><polygon class="b" points="335.03 96.86 335.03 0 345.37 0 345.37 96.86 335.03 96.86 335.03 96.86"/><polygon class="b" points="363.76 0 443.42 0 443.42 7.8 408.76 7.8 408.76 96.86 398.43 96.86 398.43 7.8 363.76 7.8 363.76 0 363.76 0"/><polygon class="b" points="459.77 96.86 459.77 0 470.11 0 470.11 41.57 534.87 41.57 534.87 0 545.21 0 545.21 96.86 534.87 96.86 534.87 49.37 470.11 49.37 470.11 96.86 459.77 96.86 459.77 96.86"/><polygon class="b" points="580.02 12.38 579.71 12.38 579.71 96.86 569.38 96.86 569.38 0 581.08 0 644.32 84.62 644.63 84.62 644.63 0 654.96 0 654.96 96.86 642.95 96.86 580.02 12.38 580.02 12.38"/><polygon class="b" points="679.43 96.86 679.43 0 752.25 0 752.25 7.8 689.77 7.8 689.77 42.78 746.17 42.78 746.17 50.58 689.77 50.58 689.77 89.06 753.77 89.06 753.77 96.86 679.43 96.86 679.43 96.86"/><path class="b" d="M796.38,58.65h42.86L817.81,7.8,796.38,58.65ZM769.31,96.86,812.33,0H824l42,96.86H855.36l-12.62-30.4H792.88L780,96.86Z" transform="translate(0 0)"/></g></svg>