<?xml version="1.0" encoding="utf-8"?>
<!-- Generator: Adobe Illustrator 16.0.0, SVG Export Plug-In . SVG Version: 6.00 Build 0)  -->
<!DOCTYPE svg PUBLIC "-//W3C//DTD SVG 1.1//EN" "http://www.w3.org/Graphics/SVG/1.1/DTD/svg11.dtd">
<svg version="1.1" id="Layer_1" xmlns="http://www.w3.org/2000/svg" xmlns:xlink="http://www.w3.org/1999/xlink" x="0px" y="0px"
	 width="148px" height="110px" viewBox="0 0 148 110" enable-background="new 0 0 148 110" xml:space="preserve">
<path fill="#FDBF2D" d="M85.538,0l-1.001,30.479c0.801-0.169,1.615-0.299,2.443-0.382L85.538,0z"/>
<path fill="#FDBF2D" d="M103.535,13.485l-7.887,17.377c0.838,0.239,1.656,0.52,2.452,0.848L103.535,13.485z"/>
<path fill="#FDBF2D" d="M106.173,37.29l21.084-25.042l-22.756,23.429C105.085,36.187,105.643,36.724,106.173,37.29"/>
<path fill="#FDBF2D" d="M112.401,53.505l33.574-1.03l-33.651-1.358c0.054,0.644,0.089,1.294,0.089,1.952
	C112.413,53.215,112.404,53.36,112.401,53.505"/>
<path fill="#FDBF2D" d="M104.757,70.239l24.385,23.616l-22.678-25.319C105.925,69.134,105.354,69.702,104.757,70.239"/>
<path fill="#FDBF2D" d="M85.201,109.555l1.845-33.508c-0.808-0.079-1.605-0.198-2.388-0.359L85.201,109.555z"/>
<path fill="#FDBF2D" d="M128.493,39.607l-18.348,3.473c0.418,0.868,0.776,1.769,1.084,2.693L128.493,39.607z"/>
<path fill="#FDBF2D" d="M128.057,67.84l-16.289-9.353c-0.231,0.96-0.521,1.896-0.868,2.806L128.057,67.84z"/>
<path fill="#FDBF2D" d="M103.068,92.642l-4.931-18.229c-0.907,0.374-1.843,0.692-2.803,0.951L103.068,92.642z"/>
<path fill="#FDBF2D" d="M88.982,31.967c-1.584,0-3.125,0.181-4.607,0.513v40.983c1.482,0.332,3.023,0.514,4.607,0.514
	c11.601,0,21.005-9.404,21.005-21.004C109.987,41.372,100.583,31.967,88.982,31.967"/>
<path fill="#419CE0" d="M17.302,46.727c0,4.751-2.991,7.537-8.152,7.537H4.5V39.209h4.65C14.271,39.209,17.302,41.975,17.302,46.727
	 M7.06,41.586V51.91h2.029c3.667,0,5.632-1.905,5.632-5.183c0-3.257-1.987-5.141-5.632-5.141H7.06z"/>
<rect x="19.559" y="39.209" fill="#419CE0" width="2.56" height="15.055"/>
<path fill="#419CE0" d="M37.381,41.176l-1.619,1.843c-0.881-0.983-2.151-1.72-3.748-1.72c-3.033,0-5.059,2.274-5.059,5.448
	c0,3.135,2.109,5.427,5.264,5.427c1.167,0,2.171-0.346,2.989-0.92v-2.95h-3.562v-2.211h6.103v6.431
	c-1.414,1.331-3.298,2.007-5.53,2.007c-4.589,0-7.866-3.338-7.866-7.784c0-4.484,3.195-7.804,7.661-7.804
	C34.309,38.943,35.967,39.722,37.381,41.176"/>
<rect x="40.559" y="39.209" fill="#419CE0" width="2.56" height="15.055"/>
<polygon fill="#419CE0" points="57.806,41.483 52.705,41.483 52.705,54.264 50.146,54.264 50.146,41.483 45.045,41.483 
	45.045,39.209 57.806,39.209 "/>
<polygon fill="#419CE0" points="62.644,38.943 62.561,38.943 55.474,54.264 58.259,54.264 62.602,44.207 66.945,54.264 
	69.729,54.264 "/>
<polygon fill="#419CE0" points="74.032,51.99 80.854,51.99 80.854,54.264 71.473,54.264 71.473,39.209 74.032,39.209 "/>
<polygon fill="#419CE0" points="5.765,67.706 10.108,67.706 10.108,68.835 4.5,68.835 4.5,59.719 5.765,59.719 "/>
<rect x="17.945" y="59.719" fill="#419CE0" width="1.265" height="9.116"/>
<path fill="#419CE0" d="M35.147,60.883l-0.805,0.92c-0.583-0.635-1.403-1.081-2.419-1.081c-1.972,0-3.311,1.5-3.311,3.56
	c0,2.049,1.389,3.549,3.436,3.549c0.818,0,1.512-0.249,2.059-0.645v-2.048h-2.321v-1.104h3.585v3.771
	c-0.843,0.782-1.985,1.191-3.323,1.191c-2.754,0-4.715-2.01-4.715-4.715c0-2.715,1.911-4.726,4.59-4.726
	C33.288,59.556,34.305,60.027,35.147,60.883"/>
<polygon fill="#419CE0" points="50.874,68.835 49.609,68.835 49.609,64.753 45.083,64.753 45.083,68.835 43.816,68.835 
	43.816,59.719 45.083,59.719 45.083,63.586 49.609,63.586 49.609,59.719 50.874,59.719 "/>
<polygon fill="#419CE0" points="66.439,60.847 63.238,60.847 63.238,68.835 61.975,68.835 61.975,60.847 58.786,60.847 
	58.786,59.719 66.439,59.719 "/>
<path fill="#419CE0" d="M79.834,60.524l-0.67,1.042c-0.584-0.484-1.353-0.845-2.308-0.845c-0.992,0-1.714,0.446-1.714,1.427
	c0,0.807,0.522,1.116,2.062,1.438c2.22,0.486,3.038,1.242,3.038,2.645c0,1.648-1.253,2.766-3.25,2.766
	c-1.351,0-2.481-0.422-3.336-1.166l0.708-1.055c0.646,0.646,1.673,1.055,2.668,1.055c1.139,0,1.946-0.521,1.946-1.5
	c0-0.794-0.597-1.192-2.134-1.515c-2.221-0.482-2.967-1.253-2.967-2.617c0-1.601,1.19-2.643,2.993-2.643
	C78.096,59.556,79.111,59.952,79.834,60.524"/>
</svg>
