<?xml version="1.0" encoding="utf-8"?>
<!-- Generator: Adobe Illustrator 15.1.0, SVG Export Plug-In . SVG Version: 6.00 Build 0)  -->
<!DOCTYPE svg PUBLIC "-//W3C//DTD SVG 1.1//EN" "http://www.w3.org/Graphics/SVG/1.1/DTD/svg11.dtd">
<svg version="1.1" id="Ebene_1" xmlns="http://www.w3.org/2000/svg" xmlns:xlink="http://www.w3.org/1999/xlink" x="0px" y="0px"
	 width="568.076px" height="131.243px" viewBox="0 0 568.076 131.243" enable-background="new 0 0 568.076 131.243"
	 xml:space="preserve">
<path fill="#1A4175" d="M530.011,22.187c-5.015,0-9.056,4.052-9.056,9.055c0,5.006,4.041,9.053,9.056,9.053
	c4.995,0,9.055-4.047,9.055-9.053C539.065,26.238,535.006,22.187,530.011,22.187z M530.011,38.615c-4.054,0-7.246-3.244-7.246-7.373
	c0-4.124,3.192-7.379,7.246-7.379c4.053,0,7.233,3.255,7.233,7.379C537.244,35.371,534.063,38.615,530.011,38.615z"/>
<path fill="#95C11F" d="M88.443,28.446c-0.092-2.497-3.005-3.601-6.22-3.601c-4.104,0-8.694,1.787-8.717,4.787
	c-0.012,5.341,0,18.989,0,18.989c-3.977-1.792-8.417-2.683-13.272-2.683c-8.868,0-16.256,2.861-22.129,8.619
	c-5.885,5.734-8.821,13.198-8.821,22.348c0,9.146,2.555,16.285,7.665,21.406c5.145,5.128,12.174,7.671,21.123,7.671
	c3.145,0,6.197-0.462,9.157-1.387c2.96-0.914,5.041-2,6.278-3.214v3.497h14.937C88.443,104.878,88.675,34.101,88.443,28.446z
	 M73.506,91.063c-0.636,0.798-2,1.566-4.081,2.335c-2.104,0.792-3.861,1.168-5.307,1.168c-12.855,0-19.272-6.007-19.272-18.047
	c0-6.157,1.618-10.879,4.832-14.175c3.26-3.294,7.851-4.959,13.839-4.959c3.468,0,6.81,1.168,9.989,3.468V91.063z"/>
<path fill="#95C11F" d="M146.631,53.939c-5.376-5.33-12.949-8.029-22.695-8.029c-9.26,0-16.729,2.804-22.348,8.353
	c-5.653,5.562-8.486,12.747-8.486,21.574c0,9.116,2.705,16.422,8.093,21.914c5.434,5.504,13.006,8.25,22.741,8.25
	c9.539,0,17.065-2.729,22.534-8.163c5.503-5.451,8.243-12.781,8.243-22.001C154.713,66.57,152.03,59.281,146.631,53.939z
	 M135.059,89.999c-2.752,3.319-6.452,4.983-11.123,4.983c-10.173,0-15.238-6.387-15.238-19.145c0-5.948,1.365-10.591,4.116-13.915
	c2.74-3.306,6.463-4.978,11.122-4.978c10.105,0,15.215,6.284,15.215,18.892C139.151,81.964,137.764,86.692,135.059,89.999z"/>
<path fill="#95C11F" d="M200.912,80.438c-6.324,0-11.446,5.197-11.446,11.607c0,6.428,5.122,11.625,11.446,11.625
	c6.312,0,11.445-5.197,11.445-11.625C212.357,85.635,207.224,80.438,200.912,80.438z"/>
<path fill="#95C11F" d="M185.027,94.404c-2.324-0.295-4.023-1.086-5.122-2.388c-1.434-1.746-2.173-4.653-2.173-8.786V57.853h21.053
	c-0.173-0.277-0.382-0.532-0.521-0.827c-0.219-0.508-0.439-1.029-0.67-1.526c-0.289-0.602-0.486-1.238-0.671-1.855
	c-0.485-1.573-0.844-3.14-1.005-4.775c-0.058-0.607-0.174-1.243-0.174-1.862h-18.012c0,0-0.162-12.295,0-18.4
	c0.057-2.63-2.729-3.716-5.919-3.716c-4.186,0-9.042,1.861-9.019,4.561c0.023,4.762,0,17.555,0,17.555h-7.387v10.845h7.387v29.319
	c0,6.018,1.723,10.648,5.145,13.937c3.422,3.244,8.359,4.891,14.752,4.891c3.469,0,6.486-0.168,9.087-0.486
	C188.171,102.994,185.674,99.017,185.027,94.404z"/>
<path fill="#1A4175" d="M530.042,72.605c0-7.758-2.832-14.134-8.439-19.158c-5.654-5.006-13.1-7.538-22.418-7.538
	c-8.729,0-16.268,2.867-22.463,8.52c-1.979,1.764-3.607,3.712-4.961,5.799c-2.959,4.647-4.428,10.075-4.428,16.353
	c0,5.787,1.086,10.781,3.33,14.984c1.352,2.502,3.086,4.739,5.201,6.665c5.678,5.185,13.412,7.77,23.205,7.77
	c10.475,0,18.336-1.925,23.619-5.752l-5.814-10.33c-3.563,3.202-8.742,4.792-15.563,4.792c-5.48,0-9.84-1.283-13.064-3.855
	c-3.248-2.549-5.006-6.133-5.26-10.729h45.783C529.603,76.75,530.042,74.259,530.042,72.605z M483.495,69.946
	c2.047-8.48,7.389-12.723,15.932-12.723c9.365,0,14.568,4.243,15.598,12.723H483.495z"/>
<path fill="#1A4175" d="M308.896,53.939c-5.377-5.33-12.938-8.029-22.684-8.029c-9.271,0-16.717,2.804-22.382,8.353
	c-5.63,5.562-8.463,12.747-8.463,21.574c0,9.116,2.706,16.422,8.117,21.914c5.41,5.504,12.959,8.25,22.729,8.25
	c9.539,0,17.03-2.729,22.545-8.163c5.48-5.451,8.221-12.781,8.221-22.001C316.978,66.57,314.294,59.281,308.896,53.939z
	 M297.299,89.999c-2.717,3.319-6.439,4.983-11.088,4.983c-10.185,0-15.272-6.387-15.272-19.145c0-5.948,1.387-10.591,4.14-13.915
	c2.752-3.306,6.451-4.978,11.133-4.978c10.128,0,15.192,6.284,15.192,18.892C301.403,81.964,300.04,86.692,297.299,89.999z"/>
<path fill="#1A4175" d="M362.089,47.038v39.788c-0.971,2.087-2.867,3.908-5.803,5.504c-2.938,1.566-6.07,2.398-9.48,2.398
	c-7.377,0-11.076-3.74-11.076-11.162V47.038h-14.938v37.568c0,14.255,7.445,21.395,22.326,21.395c3.121,0,6.531-0.579,10.23-1.734
	c3.711-1.162,6.637-2.55,8.74-4.168v4.867h14.961V47.038H362.089z"/>
<path fill="#1A4175" d="M468.026,92.947l-1.711-3.271c-4.207,3.37-9.121,5.035-14.637,5.035c-12.834,0-19.262-6.092-19.262-18.232
	c0-6.041,1.676-10.741,4.961-14.151c3.295-3.376,7.758-5.104,13.422-5.104c5.908,0,10.625,1.503,14.117,4.439l2.658-4.156
	l3.734-5.919c-5.502-3.763-11.988-5.677-19.436-5.677c-10.82,0-19.363,2.821-25.596,8.463c-6.289,5.607-9.41,12.989-9.41,22.105
	c0,9.261,2.867,16.487,8.578,21.712c5.734,5.197,13.537,7.81,23.459,7.81c4.438,0,8.277-0.324,11.514-0.972
	c3.248-0.665,7.053-2.22,11.4-4.688L468.026,92.947z"/>
<path fill="#1A4175" d="M412.589,45.91c-6.959,0-12.508,2.162-16.693,6.428v-5.301h-14.949v57.864h14.949V71.94
	c0-4.098,1.354-7.578,4.035-10.445c2.67-2.838,5.758-4.272,9.248-4.272c3.191,0,6.117,0.792,8.799,2.359l6.313-11.533
	C421.585,46.633,417.677,45.91,412.589,45.91z"/>
<path fill="#1A4175" d="M250.799,74.49c-1.387-2.901-3.363-5.458-5.93-7.625c-2.59-2.18-6.821-4.578-12.706-7.168
	c-11.122-4.885-16.695-9.619-16.695-14.163c0-2.729,0.983-4.937,2.971-6.665c1.978-1.706,4.752-2.543,8.348-2.543
	c6.059,0,22.024,1.797,22.024,1.797s1.907-11.538-0.023-11.538c-1.919,0-12.174-2.202-22.325-2.202
	c-7.769,0-14.162,2.006-19.122,6.052c-4.96,4.017-7.434,9.099-7.434,15.226c0,1.249,0.069,2.434,0.254,3.59
	c0.288,1.902,0.82,3.688,1.618,5.364c1.249,2.694,3.041,5.04,5.388,7c2.335,1.953,6.89,4.457,13.608,7.503
	c6.705,3.047,11.133,5.786,13.307,8.226c2.127,2.463,3.226,5.036,3.226,7.729c0,5.769-4.579,8.642-13.724,8.642
	c-1.549,0-3.954-0.261-6.659-0.636c-0.301,5.15-2.937,9.653-6.879,12.422c4.012,0.393,8.417,0.729,11.827,0.729
	c9.412,0,16.926-2.069,22.521-6.202c5.642-4.151,8.417-9.44,8.417-15.845C252.812,80.623,252.141,77.375,250.799,74.49z"/>
<path fill="#1A4175" d="M531.768,31.991c1.063-0.37,1.922-1.274,1.922-2.648c0-1.63-1.311-3.007-3.154-3.007h-3.679v9.786h1.809
	v-3.883h1.243l1.998,3.883h2.023L531.768,31.991z M530.311,30.814h-1.646v-2.951h1.646c0.941,0,1.596,0.648,1.596,1.479
	C531.906,30.169,531.252,30.814,530.311,30.814z"/>
</svg>
