<svg xmlns="http://www.w3.org/2000/svg" viewBox="0 0 1190.6 155.9"><path fill="#00abdd" d="M146.4 27.9l50.3 50-50.3 50.1h42.7l50.3-50.1-50.3-50z"/><path fill="#0084ca" d="M48.8 27.9L29.6 47.1v61.7L48.8 128h86.1l50.3-50.1-50.3-50z"/><path fill="#5fc4e1" d="M200.3 27.9l50.3 50-50.3 50.1H243l50.4-50.1-50.4-50z"/><path d="M384.1 128h23.2V27.9h-21.5v67l-7.7-17.3L352 27.9h-23.2V128h21.5l-.1-67.1 7.8 17.2 26.1 49.9zm44.1 0h64.2v-19h-41.6V86h34.1V67.1h-34.1V46.9h40.1v-19h-62.6V128zm125.1-81.1h27.5v-19h-77.7v19h27.5v81h22.7v-81zm53.2 30.9c0-20.1 10.9-32.2 24.6-32.2 7.2 0 12.6 3.4 17.7 8l12-14.4c-6.8-6.9-17.2-13-30.1-13-25.3 0-47.3 19.3-47.3 52.5 0 33.6 21.2 51.3 46.5 51.3 13 0 24.1-5.1 32.4-14.7l-12-14.1c-4.9 5.2-11.4 9.4-19.5 9.4-14.8-.3-24.3-12.2-24.3-32.8m129.3-.3c0 20.1-8.6 32.8-22.3 32.8-13.7 0-22.3-12.7-22.3-32.8 0-20 8.6-31.9 22.3-31.9 13.7 0 22.3 11.9 22.3 31.9m23.1 0c0-32.5-18.4-51.4-45.4-51.4s-45.4 18.7-45.4 51.4 18.4 52.3 45.4 52.3 45.4-19.6 45.4-52.3M830 128h23.2V27.9h-21.5v67L824 77.6l-26.1-49.7h-23.2V128h21.5V61.1l7.7 17L830 128zm106.2-50.5c0 20.1-8.6 32.8-22.3 32.8s-22.3-12.7-22.3-32.8c0-20 8.6-31.9 22.3-31.9s22.3 11.9 22.3 31.9m23.2 0c0-32.5-18.4-51.4-45.4-51.4s-45.4 18.7-45.4 51.4 18.4 52.3 45.4 52.3 45.4-19.6 45.4-52.3m88.1 50.5h20.6V27.9h-24.6l-15.8 44.5c-2 5.8-3.7 12.3-5.7 18.4h-.6c-2-6.1-3.8-12.6-5.8-18.4l-16.1-44.5h-24.7V128H995v-.1h.1V64.3l5.6 16.7 14.3 38.2h12.4l14.3-38.2 5.9-17.3-.1 64.3zm113.4-100.1h-23.6l-9.1 23c-2.8 7.5-5.5 14.4-8.4 22.1h-.6c-2.8-7.7-5.4-14.6-8.1-22.1l-8.9-23h-24.3l30.2 64.5V128h22.6V92.4l30.2-64.5z" fill="#2d2d2d"/></svg>