<svg viewBox="0 0 484 136" version="1.1" xmlns="http://www.w3.org/2000/svg" xmlns:xlink="http://www.w3.org/1999/xlink">
    <g id="neteleven_logo_black_64-copy" stroke="none" stroke-width="1" fill="none" fill-rule="evenodd">
        <g id="Group-3" transform="translate(0.000000, 24.000000)" fill="#000000" fill-rule="nonzero">
            <g id="Group-2">
                <path d="M24.0745009,28.16 L64.3841808,88 L46.985416,88 L22.4732637,53.4619009 L8.07738608,74.0883423 L0,62.9960522 L24.0745009,28.16 Z M54.7746755,0 L110.372881,85.36 L93.0068056,85.36 L53.1648474,25.4727197 L38.691734,46.2384149 L30.6591337,35.0762782 L54.7746755,0 Z" id="Shape-Copy-23"></path>
                <path d="M143.697941,70.9838655 L143.697941,50.1303885 C143.697941,43.292073 147.429923,39.7713562 153.129677,39.7713562 C158.761578,39.7713562 162.49356,43.292073 162.49356,50.1303885 L162.49356,70.9838655 L170.161086,70.9838655 L170.161086,48.9793849 C170.161086,38.5526465 163.579227,33.0684529 154.826033,33.0684529 C150.347654,33.0684529 146.208547,34.8965174 143.697941,37.9432916 L143.697941,33.6778077 L135.96256,33.6778077 L135.96256,70.9838655 L143.697941,70.9838655 Z M198.343205,71.5932203 C207.503525,71.5932203 213.406842,66.3798511 215.510323,59.8800661 L207.164254,59.8800661 C205.739315,62.7914281 203.093001,65.0934353 198.343205,65.0934353 C192.643451,65.0934353 188.232927,61.3696001 187.690093,55.2083456 L216.256719,55.2083456 C216.460282,53.9219298 216.528136,52.7032201 216.528136,51.4168043 C216.528136,40.4484171 208.996318,33.0684529 198.343205,33.0684529 C187.282968,33.0684529 179.683295,40.5838293 179.683295,52.2969835 C179.683295,64.0101378 187.622239,71.5932203 198.343205,71.5932203 Z M208.453484,48.9793849 L187.757947,48.9793849 C188.572198,43.0889548 192.779159,39.5682379 198.003934,39.5682379 C203.771543,39.5682379 208.317775,43.224367 208.453484,48.9793849 Z M244.506692,70.9838655 L244.506692,64.5517866 L239.756897,64.5517866 C236.499894,64.5517866 235.414227,63.400783 235.414227,60.6248331 L235.414227,39.9744744 L244.506692,39.9744744 L244.506692,33.6778077 L235.414227,33.6778077 L235.414227,24.4020728 L227.610992,24.4020728 L227.610992,33.6778077 L223.200468,33.6778077 L223.200468,39.9744744 L227.610992,39.9744744 L227.610992,60.6248331 C227.610992,68.2079156 231.750099,70.9838655 238.399813,70.9838655 L244.506692,70.9838655 Z M269.974642,71.5932203 C279.134962,71.5932203 285.038279,66.3798511 287.14176,59.8800661 L278.795691,59.8800661 C277.370752,62.7914281 274.724438,65.0934353 269.974642,65.0934353 C264.274888,65.0934353 259.864364,61.3696001 259.32153,55.2083456 L287.888156,55.2083456 C288.091719,53.9219298 288.159573,52.7032201 288.159573,51.4168043 C288.159573,40.4484171 280.627755,33.0684529 269.974642,33.0684529 C258.914405,33.0684529 251.314732,40.5838293 251.314732,52.2969835 C251.314732,64.0101378 259.253676,71.5932203 269.974642,71.5932203 Z M280.084921,48.9793849 L259.389384,48.9793849 C260.203635,43.0889548 264.410596,39.5682379 269.635371,39.5682379 C275.40298,39.5682379 279.949213,43.224367 280.084921,48.9793849 Z M305.756434,70.9838655 L305.756434,20.8813559 L298.021053,20.8813559 L298.021053,70.9838655 L305.756434,70.9838655 Z M334.277824,71.5932203 C343.438143,71.5932203 349.34146,66.3798511 351.444941,59.8800661 L343.098872,59.8800661 C341.673934,62.7914281 339.027619,65.0934353 334.277824,65.0934353 C328.578069,65.0934353 324.167545,61.3696001 323.624712,55.2083456 L352.191338,55.2083456 C352.3949,53.9219298 352.462755,52.7032201 352.462755,51.4168043 C352.462755,40.4484171 344.930936,33.0684529 334.277824,33.0684529 C323.217586,33.0684529 315.617914,40.5838293 315.617914,52.2969835 C315.617914,64.0101378 323.556857,71.5932203 334.277824,71.5932203 Z M344.388102,48.9793849 L323.692566,48.9793849 C324.506816,43.0889548 328.713778,39.5682379 333.938553,39.5682379 C339.706161,39.5682379 344.252394,43.224367 344.388102,48.9793849 Z M381.323416,70.9838655 L395.572802,33.6778077 L387.362441,33.6778077 L376.777183,64.0778439 L366.191925,33.6778077 L357.91371,33.6778077 L372.095242,70.9838655 L381.323416,70.9838655 Z M419.751522,71.5932203 C428.911841,71.5932203 434.815158,66.3798511 436.918639,59.8800661 L428.57257,59.8800661 C427.147631,62.7914281 424.501317,65.0934353 419.751522,65.0934353 C414.051767,65.0934353 409.641243,61.3696001 409.098409,55.2083456 L437.665035,55.2083456 C437.868598,53.9219298 437.936452,52.7032201 437.936452,51.4168043 C437.936452,40.4484171 430.404634,33.0684529 419.751522,33.0684529 C408.691284,33.0684529 401.091611,40.5838293 401.091611,52.2969835 C401.091611,64.0101378 409.030555,71.5932203 419.751522,71.5932203 Z M429.8618,48.9793849 L409.166263,48.9793849 C409.980514,43.0889548 414.187476,39.5682379 419.412251,39.5682379 C425.179859,39.5682379 429.726092,43.224367 429.8618,48.9793849 Z M455.533313,70.9838655 L455.533313,50.1303885 C455.533313,43.292073 459.265295,39.7713562 464.965049,39.7713562 C470.59695,39.7713562 474.328932,43.292073 474.328932,50.1303885 L474.328932,70.9838655 L481.996458,70.9838655 L481.996458,48.9793849 C481.996458,38.5526465 475.414599,33.0684529 466.661405,33.0684529 C462.183026,33.0684529 458.043919,34.8965174 455.533313,37.9432916 L455.533313,33.6778077 L447.797932,33.6778077 L447.797932,70.9838655 L455.533313,70.9838655 Z" id="neteleven"></path>
            </g>
        </g>
    </g>
</svg>