<?xml version="1.0" encoding="UTF-8" standalone="no"?>
<svg width="206px" height="30px" viewBox="0 0 206 30" version="1.1" xmlns="http://www.w3.org/2000/svg" xmlns:xlink="http://www.w3.org/1999/xlink">
    <!-- Generator: sketchtool 3.8.3 (29802) - http://www.bohemiancoding.com/sketch -->
    <title>6473C349-DB9A-47D0-86E2-D62745465664</title>
    <desc>Created with sketchtool.</desc>
    <defs></defs>
    <g id="Symbols" stroke="none" stroke-width="1" fill="none" fill-rule="evenodd">
        <g id="main-navigation" transform="translate(-170.000000, -40.000000)" fill="#B8B5B4">
            <g id="pearl-logo" transform="translate(170.000000, 40.000000)">
                <path d="M0.983571159,0.982843734 C1.98778212,0.24011812 3.28276462,0.117821935 4.48931659,0.00298283379 C13.4372859,0 22.3867541,0.00745708448 31.3347234,0 C32.4828213,0.0387768393 33.6264227,0.334077385 34.627636,0.896341554 C35.3575625,1.32736104 35.843181,2.12676049 35.8251951,2.97985096 C35.8281927,6.36536731 35.8147033,9.75088366 35.8311904,13.1364 C35.859668,13.8388574 35.6048682,14.5875487 35.0338169,15.0291572 C34.1345235,15.7776993 32.9459574,16.0985031 31.7918642,16.1565192 C31.093413,16.2683755 30.38447,16.2849302 29.6785247,16.2668841 C25.4293634,16.2653927 21.1817009,16.2624098 16.9340384,16.2683755 C15.1384493,16.1611426 13.2319473,15.9686007 11.7346237,14.8798664 C11.403384,14.635274 11.284977,14.2281172 11.1006219,13.880617 C17.0464501,13.8671943 22.9922783,13.8791256 28.9381065,13.8746514 C29.6860188,13.8657029 30.4129476,13.5569796 30.9914931,13.0961318 C31.3017493,12.8589965 31.5040903,12.4876337 31.4756127,12.0938996 C31.4786103,9.50330846 31.4741139,6.91122589 31.4771115,4.32063475 C31.4861044,3.78969033 31.2687752,3.20654633 30.7951473,2.9216857 C30.1596467,2.49961472 29.3922496,2.29379919 28.6353444,2.24607385 C21.6388417,2.24159959 14.6408402,2.25203951 7.64283878,2.24010818 C6.56218788,2.21624551 5.39310646,2.44890654 4.6107212,3.24234033 C4.24950502,3.67037698 4.36641316,4.2639609 4.34692847,4.77849973 C4.35292376,12.2355842 4.35442258,19.6941601 4.34542965,27.152736 C4.37990256,27.9493018 3.75489365,28.5205144 3.15836236,28.9454191 C2.2410831,29.6046254 1.09748166,29.7955267 0.00933664278,30 C-0.0086492252,20.7948258 0.00783782045,11.5898007 0.00184253112,2.38626703 C-0.0356280272,1.74495777 0.505446835,1.30946403 0.983571159,0.982843734" id="Fill-1"></path>
                <path d="M52.8291895,2.16655819 C52.1896512,2.26839917 51.5185121,2.34927288 50.9602327,2.70571629 C50.4922411,2.99326727 50.0528406,3.4650306 50.0618694,4.04762087 C50.0302687,4.72007082 49.998668,5.48687344 50.4892315,6.02004089 C51.4026428,6.79283416 52.6651668,6.96206989 53.8253646,6.90216344 C60.6992734,6.89467513 67.5731823,6.89916811 74.4470911,6.90066578 C75.2988057,6.92163303 76.1339676,6.61161713 76.809621,6.10540759 C77.1858201,5.85529814 77.3212517,5.39252078 77.3016894,4.96119431 C77.2700887,4.32319056 77.4687218,3.5578856 76.9465575,3.06215969 C76.1475107,2.23395296 74.9211019,2.19800908 73.8466774,2.11114472 C67.4227026,2.1081494 61.0002327,2.11114472 54.5762579,2.10964706 C53.9939018,2.1081494 53.4070313,2.07819617 52.8291895,2.16655819 M48.9091956,0.0668369565 C49.0882663,0.0308930837 49.2688419,0.0114234859 49.452427,0.00842816321 C58.3337339,0.00992582458 67.213536,0.00842816321 76.0948429,0.00992582458 C77.2851366,0.0264000996 78.5265935,-0.12636136 79.6506762,0.367866891 C80.640832,0.730300942 81.6941894,1.54802405 81.6655982,2.69822798 C81.6520551,4.04612321 81.6836558,5.39701376 81.6520551,6.74490899 C81.5241474,7.75732808 80.5610779,8.32344407 79.7123728,8.70385006 C78.7974568,9.03483322 77.8193393,9.19957597 76.8472409,9.15464613 C68.2699029,9.1441625 59.6925648,9.15314847 51.1152267,9.15015315 C49.696204,9.2220409 48.2019414,9.0782654 46.9604846,8.33842069 C46.4593874,7.93704744 45.827373,7.46528411 45.8469354,6.75539262 C45.8409162,5.3026611 45.8544594,3.84992957 45.8394114,2.39719804 C45.7792196,1.83407737 46.1764858,1.37130001 46.5707423,1.02084725 C47.2268335,0.46521488 48.0905865,0.261532934 48.9091956,0.0668369565" id="Fill-7"></path>
                <path d="M90.8333333,0.0220801967 C98.7683942,-0.0167586717 106.704959,0.0267408609 114.641523,0.000330430434 C115.246013,-0.00899089798 115.833963,0.182096334 116.440107,0.169667897 C118.548154,0.157239459 120.657854,0.168114342 122.766051,0.161900123 C124.083298,0.199185437 125.487761,0.663698303 126.334347,1.76050795 C126.508777,1.97023784 126.559903,2.25143124 126.666667,2.5 C116.137712,2.49844645 105.61026,2.5 95.0813051,2.5 C94.0542733,2.46426824 93.0362638,2.1706464 92.1280249,1.67816954 C91.5130088,1.33483395 90.9416002,0.766232915 90.8333333,0.0220801967" id="Fill-4"></path>
                <path d="M137.679001,0.737724764 C138.658277,0.111184325 139.851215,-0.0385063711 140.98035,0.00778972045 C148.894688,0.0139625327 156.810361,0.0124193296 164.724847,0.0093329235 C165.532008,0.0556290151 166.306379,0.361183219 167.049887,0.680626251 C167.607778,1.00315569 168.165669,1.49080785 168.333333,2.15901477 C163.766342,2.19759485 159.197867,2.1698172 154.630876,2.17444681 C153.785137,2.10654587 152.954236,2.29327344 152.114431,2.33339672 C149.093511,2.3256807 146.07259,2.33802633 143.051669,2.3256807 C142.382497,2.31333508 141.760804,2.65438295 141.245942,3.06950458 C140.969964,3.29635542 140.81417,3.65900814 140.831975,4.02320406 C140.834943,8.2376916 140.830491,12.4521791 140.834943,16.6666667 C139.557432,16.449075 138.170123,16.1697553 137.217553,15.1836485 C136.9119,14.8966128 136.649276,14.5123552 136.6745,14.0632831 C136.671532,10.148177 136.681919,6.23307083 136.670049,2.31796469 C136.619601,1.62352332 137.141882,1.06488381 137.679001,0.737724764" id="Fill-9"></path>
                <path d="M175.23266,1.88128475 C176.153047,1.24086999 177.243603,0.97275377 178.32824,0.833333333 C178.308856,4.90563575 178.326613,8.97947026 178.319214,13.0533048 C178.243896,13.866846 178.87559,14.5424989 179.55641,14.8320644 C180.969546,15.3269304 182.475756,15.1645285 183.94083,15.1875099 C191.238824,15.1967025 198.535191,15.1691248 205.833333,15.2012988 C205.614186,15.7022931 205.377579,16.2415897 204.864115,16.4821283 C203.660952,17.2895411 202.203573,17.3692099 200.820031,17.4917774 C194.650918,17.4902453 188.481952,17.4917774 182.313135,17.4902453 C180.833412,17.4519429 179.343182,17.5959597 177.875297,17.3647669 C176.624931,17.3661458 175.322775,16.9218389 174.488359,15.9213823 C174.21609,15.6593945 174.173178,15.2564541 174.168739,14.8948802 C174.171698,11.1596382 174.177469,7.42592826 174.167259,3.69068623 C174.148023,2.9414929 174.599338,2.2275377 175.23266,1.88128475" id="Fill-11"></path>
                <path d="M97.3715124,8.99701604 C96.4371068,9.15876472 95.2845226,9.53767597 95.090419,10.6025214 C95.0558114,11.3064277 94.8692312,12.1810687 95.4665888,12.7142403 C96.2399938,13.5379604 97.4467464,13.6383045 98.5105545,13.7206765 C104.932525,13.7206765 111.354495,13.7176812 117.77797,13.7221742 C118.795133,13.7536253 119.824333,13.6892254 120.816067,13.443607 C121.423958,13.2339328 122.061791,12.8340541 122.264923,12.1930501 C122.319091,11.6149483 122.316082,11.0293582 122.261913,10.4512565 C122.117464,9.71739673 121.353087,9.39090402 120.728645,9.14678333 C119.929661,8.83976038 119.06447,8.94160214 118.229373,8.9326161 C111.504963,8.93111843 104.782057,8.93710912 98.0576461,8.92962076 C97.8259255,8.93411378 97.5957096,8.95208585 97.3715124,8.99701604 M94.2116864,6.73552989 C94.8391376,6.63668348 95.4771215,6.68910203 96.1105914,6.68011599 C104.435981,6.68161367 112.762874,6.68011599 121.088264,6.68161367 C122.448493,6.62919511 123.873425,6.68610668 125.105757,7.32411536 C125.602301,7.59669184 126.165051,7.88274737 126.408809,8.42490497 C126.771436,9.13929497 126.639025,9.95852207 126.658585,10.7268283 C126.633006,11.6673669 126.700716,12.6109009 126.63752,13.5499418 C126.420997,14.2852992 125.844554,14.8963498 125.155411,15.2258378 C124.231538,15.7020978 123.173749,15.8711851 122.140034,15.8264047 C113.513709,15.8144233 104.887384,15.824907 96.2610593,15.820414 C95.2333635,15.8022921 94.1770788,15.9340874 93.1900094,15.5836319 C92.2646318,15.3127028 91.1782535,14.8379405 90.8652802,13.8509741 C90.7975697,12.5120544 90.8697943,11.1686418 90.8351867,9.82822452 C90.8457194,9.2815739 90.7554387,8.64656057 91.157188,8.20474705 C91.888462,7.27469215 93.0907006,6.9287297 94.2116864,6.73552989" id="Fill-14"></path>
                <path d="M45.8333333,13.3455494 C56.3602756,13.3237563 66.8872179,13.3377661 77.4141602,13.3377661 C78.6900623,13.4809783 80.0710386,13.7674026 81.0257135,14.7294148 C81.3334311,15.025179 81.4895414,15.434579 81.6666667,15.8190725 C74.1418468,15.8455356 66.6155259,15.8175159 59.0892049,15.8330824 C58.4872794,15.8408657 57.9003644,15.6649638 57.2984389,15.6696337 C54.6460637,15.6711904 51.9921875,15.682087 49.3383113,15.6680771 C48.277061,15.4968452 47.1587704,15.1839577 46.3557026,14.4025174 C46.0584925,14.1269897 45.9279002,13.7315996 45.8333333,13.3455494" id="Fill-16"></path>
            </g>
        </g>
    </g>
</svg>