<svg id="svg" version="1.1" xmlns="http://www.w3.org/2000/svg" xmlns:xlink="http://www.w3.org/1999/xlink" width="400" height="73.72830640335128" viewBox="0, 0, 400,73.72830640335128"><g id="svgg"><path id="path0" d="M365.512 11.647 C 365.505 11.866,365.419 12.353,365.321 12.731 C 365.056 13.745,364.710 15.150,364.515 16.000 C 364.237 17.215,362.978 22.489,361.912 26.906 C 361.619 28.120,361.539 28.065,362.889 27.576 C 364.765 26.895,367.501 27.020,369.058 27.857 C 369.571 28.134,369.577 27.906,369.101 25.957 C 368.850 24.926,368.458 23.296,368.232 22.333 C 368.005 21.371,367.714 20.171,367.586 19.667 C 367.458 19.162,367.269 18.375,367.167 17.917 C 367.064 17.458,366.875 16.671,366.745 16.167 C 366.616 15.662,366.289 14.350,366.017 13.250 C 365.746 12.150,365.518 11.429,365.512 11.647 M355.033 25.099 C 355.080 25.182,355.889 26.511,356.832 28.051 L 358.546 30.853 359.028 30.269 C 359.293 29.947,359.811 29.426,360.180 29.111 L 360.850 28.537 359.133 27.505 C 358.189 26.937,357.268 26.385,357.086 26.278 C 356.904 26.171,356.454 25.890,356.086 25.653 C 355.080 25.007,354.940 24.933,355.033 25.099 M373.293 26.782 L 370.502 28.532 371.606 29.600 C 372.214 30.186,372.731 30.667,372.756 30.667 C 372.781 30.667,373.267 29.898,373.836 28.958 C 374.405 28.019,375.201 26.744,375.603 26.125 C 376.006 25.506,376.279 25.007,376.210 25.016 C 376.140 25.025,374.828 25.820,373.293 26.782 M356.000 32.111 C 355.129 32.332,354.004 32.619,353.500 32.749 C 352.996 32.879,351.421 33.256,350.000 33.587 C 348.579 33.918,346.229 34.483,344.777 34.844 C 343.325 35.205,341.975 35.506,341.777 35.513 C 341.208 35.534,342.446 35.897,345.667 36.654 C 347.271 37.031,349.333 37.522,350.250 37.746 C 351.167 37.969,352.779 38.351,353.833 38.593 C 354.887 38.836,356.120 39.139,356.572 39.267 C 358.003 39.672,358.017 39.660,357.563 38.409 C 356.875 36.515,357.003 34.170,357.915 31.958 C 358.065 31.596,358.013 31.600,356.000 32.111 M373.323 31.980 C 374.310 33.825,374.306 38.078,373.316 39.271 C 373.016 39.632,373.476 39.568,376.500 38.825 C 378.012 38.453,379.700 38.044,380.250 37.916 C 381.388 37.652,385.366 36.693,388.075 36.031 C 389.078 35.785,389.753 35.562,389.575 35.534 C 389.114 35.462,385.793 34.680,380.583 33.416 C 379.667 33.194,378.092 32.821,377.083 32.587 C 376.075 32.353,374.833 32.050,374.322 31.914 C 373.148 31.601,373.121 31.603,373.323 31.980 M358.333 40.650 C 358.333 40.732,357.593 41.988,356.688 43.441 C 354.894 46.321,354.895 46.319,355.635 45.883 C 357.024 45.064,360.667 42.801,360.667 42.757 C 360.667 42.669,358.506 40.500,358.418 40.500 C 358.371 40.500,358.333 40.567,358.333 40.650 M371.541 41.635 C 370.967 42.232,370.517 42.735,370.541 42.754 C 370.607 42.808,371.725 43.500,374.115 44.968 L 376.313 46.319 374.962 44.118 C 374.219 42.907,373.418 41.598,373.182 41.208 C 372.664 40.353,372.807 40.316,371.541 41.635 M361.667 43.270 C 361.667 43.315,361.969 44.603,362.339 46.134 C 363.197 49.688,363.725 51.879,364.262 54.125 C 364.498 55.110,364.873 56.651,365.095 57.548 C 365.318 58.446,365.506 59.346,365.513 59.548 C 365.529 59.989,365.965 58.463,366.575 55.833 C 366.819 54.779,367.200 53.167,367.422 52.250 C 369.883 42.079,369.721 43.090,368.817 43.527 C 367.225 44.296,364.466 44.328,362.669 43.597 C 362.118 43.373,361.667 43.226,361.667 43.270 " stroke="none" fill="#f4f4f4" fill-rule="evenodd"></path><path id="path1" d="M374.045 35.667 C 374.045 36.079,374.078 36.248,374.118 36.042 C 374.157 35.835,374.157 35.498,374.118 35.292 C 374.078 35.085,374.045 35.254,374.045 35.667 M365.128 44.121 C 365.428 44.158,365.878 44.157,366.128 44.119 C 366.378 44.081,366.133 44.051,365.583 44.052 C 365.033 44.053,364.828 44.084,365.128 44.121 " stroke="none" fill="#bcbcbc" fill-rule="evenodd"></path><path id="path2" d="M209.000 3.167 L 209.000 6.333 211.917 6.333 L 214.833 6.333 214.833 3.167 L 214.833 0.000 211.917 0.000 L 209.000 0.000 209.000 3.167 M361.000 1.528 C 359.983 1.666,358.565 1.952,356.833 2.368 C 355.649 2.653,353.099 3.507,352.925 3.678 C 352.838 3.763,352.662 3.833,352.534 3.833 C 352.214 3.833,348.149 5.851,347.833 6.167 C 347.665 6.335,347.075 6.679,346.792 6.774 C 346.631 6.828,346.500 6.938,346.500 7.019 C 346.500 7.100,346.420 7.167,346.322 7.167 C 346.172 7.167,345.094 7.893,344.833 8.170 C 344.787 8.219,344.415 8.519,344.006 8.838 C 343.239 9.434,343.072 9.585,341.400 11.200 C 340.201 12.358,339.595 13.020,338.836 14.000 C 338.516 14.412,338.167 14.842,338.060 14.954 C 337.953 15.066,337.694 15.441,337.483 15.787 C 337.273 16.133,337.056 16.454,337.001 16.500 C 336.947 16.546,336.605 17.074,336.243 17.673 C 335.880 18.272,335.491 18.909,335.377 19.089 C 335.169 19.420,335.045 19.678,334.295 21.333 C 333.669 22.715,333.510 23.124,333.003 24.667 C 332.499 26.198,332.134 27.435,332.067 27.833 C 332.044 27.971,331.949 28.458,331.855 28.917 C 330.874 33.726,331.033 39.952,332.244 44.167 C 332.362 44.579,332.557 45.254,332.676 45.667 C 333.051 46.961,334.200 49.905,334.439 50.180 C 334.564 50.325,334.672 50.550,334.679 50.680 C 334.686 50.810,334.833 51.142,335.007 51.417 C 335.181 51.692,335.436 52.142,335.575 52.417 C 336.063 53.385,337.222 55.236,337.505 55.500 C 337.554 55.546,337.892 55.994,338.255 56.496 C 339.677 58.457,342.220 61.041,344.333 62.671 C 344.746 62.990,345.108 63.306,345.139 63.375 C 345.169 63.444,345.294 63.500,345.417 63.500 C 345.539 63.500,345.664 63.561,345.694 63.635 C 345.823 63.946,348.793 65.725,350.667 66.613 C 351.913 67.203,352.590 67.474,355.167 68.417 C 355.488 68.535,356.050 68.706,356.417 68.799 C 356.783 68.891,357.458 69.060,357.917 69.174 C 364.439 70.802,373.666 69.884,379.750 67.003 C 380.117 66.830,380.604 66.605,380.833 66.505 C 381.063 66.404,381.625 66.105,382.083 65.840 C 382.542 65.575,383.235 65.189,383.625 64.983 C 384.015 64.776,384.333 64.558,384.333 64.497 C 384.333 64.437,384.515 64.304,384.736 64.203 C 385.110 64.033,386.546 63.014,387.492 62.248 C 388.274 61.614,391.995 57.916,391.998 57.770 C 391.999 57.689,392.135 57.501,392.300 57.353 C 392.464 57.205,392.781 56.821,393.003 56.500 C 393.226 56.179,393.541 55.771,393.704 55.594 C 393.867 55.416,394.000 55.215,394.000 55.147 C 394.000 55.079,394.094 54.925,394.209 54.804 C 394.324 54.682,394.566 54.302,394.747 53.958 C 394.928 53.615,395.125 53.333,395.185 53.333 C 395.245 53.333,395.339 53.202,395.392 53.042 C 395.446 52.881,395.568 52.637,395.664 52.500 C 395.759 52.362,395.950 51.987,396.088 51.667 C 396.225 51.346,396.409 50.971,396.496 50.833 C 396.632 50.618,397.202 49.360,397.666 48.250 C 399.596 43.639,400.518 36.141,399.749 31.321 C 399.241 28.132,399.108 27.407,398.957 27.000 C 398.872 26.771,398.666 26.096,398.500 25.500 C 398.072 23.964,397.086 21.420,396.477 20.279 C 396.182 19.726,395.586 18.653,395.415 18.366 C 394.882 17.474,393.456 15.297,393.250 15.061 C 393.158 14.956,392.785 14.487,392.420 14.019 C 392.055 13.550,391.699 13.167,391.628 13.167 C 391.558 13.167,391.500 13.101,391.500 13.021 C 391.500 12.882,388.588 9.911,387.844 9.290 C 386.206 7.923,383.253 5.978,381.385 5.036 C 380.817 4.749,380.217 4.445,380.051 4.360 C 379.886 4.275,379.563 4.131,379.333 4.040 C 379.104 3.949,378.700 3.787,378.436 3.681 C 376.183 2.771,372.904 1.921,370.051 1.507 C 368.636 1.302,362.553 1.316,361.000 1.528 M366.071 12.667 C 366.228 13.354,366.535 14.667,366.754 15.583 C 366.973 16.500,367.456 18.525,367.828 20.083 C 368.199 21.642,368.778 24.060,369.114 25.457 C 369.831 28.440,369.899 28.245,368.333 27.711 C 366.311 27.021,363.826 27.150,362.042 28.036 C 361.438 28.337,361.448 28.204,362.308 24.646 C 362.759 22.778,363.478 19.787,363.905 18.000 C 365.797 10.087,365.595 10.585,366.071 12.667 M25.333 13.846 C 20.959 14.025,19.207 14.231,15.333 15.025 C 13.137 15.476,8.728 17.265,8.000 18.001 C 7.954 18.047,7.617 18.305,7.250 18.575 C 6.557 19.083,5.774 19.849,5.197 20.582 L 4.861 21.010 4.769 19.963 C 4.718 19.388,4.632 18.129,4.579 17.167 C 4.436 14.608,4.669 14.833,2.155 14.833 L 0.000 14.833 0.000 44.250 L 0.000 73.667 2.917 73.667 L 5.833 73.667 5.833 63.389 L 5.833 53.111 6.458 53.740 C 7.395 54.683,8.963 55.726,10.500 56.429 C 10.821 56.576,11.282 56.802,11.526 56.932 C 11.769 57.061,12.089 57.167,12.236 57.167 C 12.384 57.167,12.635 57.234,12.794 57.317 C 13.465 57.664,16.395 58.390,18.167 58.647 C 22.602 59.290,24.039 59.367,30.083 59.287 C 33.383 59.244,36.646 59.123,37.333 59.019 C 38.021 58.915,39.183 58.746,39.917 58.643 C 46.077 57.778,50.987 55.734,53.831 52.850 C 54.842 51.824,55.667 50.780,55.667 50.525 C 55.667 50.435,55.723 50.336,55.792 50.306 C 56.099 50.169,56.947 48.063,57.460 46.167 C 58.002 44.162,57.921 29.001,57.355 26.583 C 56.708 23.816,53.526 19.000,52.345 19.000 C 52.262 19.000,52.169 18.934,52.139 18.854 C 52.006 18.505,48.287 16.500,47.773 16.500 C 47.654 16.500,47.504 16.449,47.441 16.386 C 47.305 16.250,46.313 15.889,45.500 15.680 C 42.083 14.801,40.557 14.503,37.833 14.181 C 37.054 14.089,35.067 13.971,33.417 13.919 C 31.767 13.867,30.004 13.800,29.500 13.769 C 28.996 13.739,27.121 13.773,25.333 13.846 M253.000 13.930 C 247.607 14.209,243.351 14.939,239.510 16.243 C 238.827 16.475,238.194 16.740,238.101 16.832 C 238.009 16.924,237.841 17.000,237.729 17.000 C 237.524 17.000,235.715 18.025,235.083 18.499 C 234.290 19.094,232.719 20.832,232.360 21.512 C 231.478 23.181,231.420 23.531,231.418 27.167 L 231.417 30.583 231.900 31.583 C 232.352 32.518,233.922 34.283,234.750 34.786 C 236.526 35.865,239.630 37.045,241.833 37.477 C 244.484 37.998,245.388 38.148,246.833 38.311 C 251.162 38.800,259.419 39.337,262.545 39.335 C 265.180 39.332,273.179 40.033,275.167 40.441 C 281.109 41.659,282.584 42.798,282.582 46.167 C 282.580 49.358,280.930 51.356,277.500 52.323 C 277.087 52.440,276.577 52.602,276.366 52.684 C 270.710 54.891,248.245 54.637,242.333 52.300 C 242.104 52.209,241.579 52.022,241.167 51.883 C 237.945 50.798,236.495 48.732,236.369 45.042 L 236.287 42.667 233.394 42.667 L 230.500 42.667 230.500 45.114 C 230.500 50.925,232.910 54.250,238.750 56.497 C 238.933 56.567,239.308 56.719,239.583 56.834 C 239.858 56.949,240.308 57.102,240.583 57.173 C 244.326 58.148,245.647 58.430,247.500 58.655 C 248.279 58.749,249.592 58.914,250.417 59.022 C 253.027 59.362,264.597 59.408,267.994 59.091 C 271.010 58.810,274.463 58.376,274.662 58.253 C 274.724 58.215,275.219 58.106,275.762 58.011 C 281.932 56.937,286.393 54.150,287.917 50.417 C 288.541 48.887,288.670 43.296,288.108 42.083 C 287.938 41.717,287.714 41.229,287.609 41.000 C 287.337 40.403,285.356 38.447,284.667 38.094 C 284.346 37.930,283.656 37.579,283.133 37.314 C 280.732 36.096,275.724 34.972,270.667 34.516 C 266.762 34.164,261.710 33.828,260.417 33.834 C 255.309 33.856,245.757 33.013,243.000 32.295 C 242.313 32.117,241.524 31.914,241.249 31.845 C 240.973 31.776,240.598 31.638,240.415 31.539 C 240.233 31.439,239.971 31.314,239.833 31.261 C 237.840 30.491,237.250 29.479,237.250 26.833 C 237.250 23.318,239.000 21.450,243.250 20.430 C 243.892 20.276,244.604 20.086,244.833 20.008 C 245.259 19.863,246.427 19.696,250.250 19.234 C 252.880 18.917,265.301 18.863,267.333 19.161 C 268.021 19.262,269.221 19.419,270.000 19.510 C 272.476 19.801,275.718 20.523,276.641 20.990 C 276.793 21.067,277.329 21.339,277.833 21.594 C 278.853 22.112,280.500 23.272,280.500 23.474 C 280.500 23.545,280.647 23.762,280.827 23.955 C 281.498 24.675,281.833 26.161,281.833 28.411 L 281.833 30.500 284.770 30.500 L 287.707 30.500 287.623 27.458 C 287.529 24.025,287.244 22.943,285.991 21.250 C 285.382 20.427,283.630 18.667,283.420 18.667 C 283.360 18.667,283.072 18.485,282.781 18.263 C 280.429 16.474,275.248 14.942,268.917 14.162 C 267.499 13.987,255.327 13.810,253.000 13.930 M65.333 15.172 C 65.333 15.358,65.446 15.554,65.583 15.606 C 65.721 15.659,65.833 15.768,65.833 15.848 C 65.833 15.929,66.696 17.197,67.750 18.667 C 68.804 20.136,69.667 21.413,69.667 21.503 C 69.667 21.593,69.730 21.667,69.807 21.667 C 69.884 21.667,70.089 21.929,70.262 22.250 C 70.434 22.571,70.620 22.833,70.674 22.833 C 70.728 22.833,70.941 23.133,71.147 23.500 C 71.353 23.867,71.578 24.167,71.646 24.167 C 71.715 24.167,71.897 24.429,72.050 24.750 C 72.203 25.071,72.404 25.333,72.497 25.333 C 72.590 25.333,72.667 25.407,72.667 25.497 C 72.667 25.587,73.529 26.864,74.583 28.333 C 75.637 29.803,76.500 31.079,76.500 31.169 C 76.500 31.260,76.561 31.333,76.636 31.333 C 76.711 31.333,76.931 31.615,77.126 31.958 C 77.321 32.302,77.597 32.733,77.741 32.917 C 78.067 33.334,78.632 34.123,80.784 37.167 C 81.725 38.496,82.615 39.733,82.763 39.917 C 82.910 40.100,83.111 40.419,83.209 40.625 C 83.307 40.831,83.450 41.000,83.527 41.000 C 83.604 41.000,83.667 41.106,83.667 41.236 C 83.667 41.366,83.730 41.497,83.808 41.528 C 83.886 41.558,84.148 41.883,84.390 42.250 C 84.919 43.052,84.915 43.046,87.368 46.500 C 88.443 48.012,89.399 49.341,89.494 49.451 C 89.589 49.562,89.667 49.731,89.667 49.826 C 89.667 49.922,89.730 50.000,89.807 50.000 C 89.884 50.000,90.089 50.262,90.262 50.583 C 90.434 50.904,90.618 51.167,90.669 51.167 C 90.720 51.167,90.903 51.410,91.076 51.708 C 91.249 52.006,92.128 53.273,93.029 54.523 C 94.838 57.034,94.761 56.881,94.426 57.290 C 94.294 57.451,93.714 58.221,93.137 59.000 C 92.560 59.779,92.045 60.454,91.994 60.500 C 91.943 60.546,91.720 60.846,91.500 61.167 C 91.280 61.487,91.058 61.788,91.007 61.833 C 90.956 61.879,90.581 62.367,90.173 62.917 C 89.042 64.441,86.842 66.500,86.344 66.500 C 86.247 66.500,86.167 66.561,86.167 66.635 C 86.167 66.710,85.773 66.950,85.292 67.169 C 82.912 68.251,80.698 68.665,77.292 68.666 L 74.667 68.667 74.667 71.167 L 74.667 73.667 78.125 73.666 C 81.512 73.666,83.085 73.491,85.500 72.845 C 86.989 72.448,90.000 71.081,90.000 70.804 C 90.000 70.728,90.086 70.667,90.191 70.667 C 90.628 70.667,93.320 68.165,94.584 66.583 C 94.950 66.125,95.306 65.725,95.375 65.694 C 95.444 65.664,95.500 65.569,95.500 65.483 C 95.500 65.397,96.164 64.409,96.975 63.288 C 97.786 62.167,98.661 60.914,98.918 60.504 C 99.175 60.093,99.486 59.657,99.609 59.533 C 99.733 59.410,99.833 59.254,99.833 59.186 C 99.833 59.118,99.965 58.916,100.125 58.737 C 100.285 58.558,100.792 57.850,101.250 57.164 C 101.708 56.478,102.128 55.879,102.183 55.833 C 102.238 55.788,102.480 55.437,102.719 55.054 C 103.117 54.420,105.641 50.812,105.964 50.417 C 106.039 50.325,106.244 50.006,106.419 49.708 C 106.595 49.410,106.789 49.167,106.850 49.167 C 106.911 49.167,107.005 49.035,107.058 48.875 C 107.111 48.715,107.536 48.058,108.001 47.417 C 108.467 46.775,109.043 45.950,109.282 45.583 C 109.521 45.217,109.770 44.879,109.835 44.833 C 109.900 44.788,110.078 44.506,110.231 44.208 C 110.384 43.910,110.573 43.667,110.652 43.667 C 110.730 43.667,110.838 43.535,110.891 43.375 C 110.993 43.069,112.329 41.098,112.726 40.667 C 112.853 40.529,113.081 40.192,113.233 39.917 C 113.385 39.642,113.923 38.854,114.429 38.167 C 114.934 37.479,115.391 36.785,115.443 36.625 C 115.496 36.465,115.603 36.333,115.682 36.333 C 115.760 36.333,115.949 36.093,116.101 35.800 C 116.252 35.506,116.480 35.163,116.606 35.037 C 116.732 34.911,116.921 34.647,117.026 34.451 C 117.131 34.255,117.693 33.436,118.275 32.632 C 118.857 31.827,119.333 31.094,119.333 31.001 C 119.333 30.909,119.396 30.833,119.473 30.833 C 119.550 30.833,119.693 30.665,119.791 30.458 C 119.889 30.252,120.089 29.933,120.237 29.750 C 120.384 29.567,121.026 28.667,121.664 27.750 C 122.302 26.833,122.901 25.993,122.995 25.882 C 123.090 25.771,123.167 25.603,123.167 25.507 C 123.167 25.411,123.225 25.333,123.295 25.333 C 123.366 25.333,123.566 25.071,123.738 24.750 C 123.911 24.429,124.116 24.167,124.193 24.167 C 124.270 24.167,124.333 24.095,124.333 24.008 C 124.333 23.875,126.297 21.026,126.833 20.382 C 126.925 20.271,127.000 20.137,127.000 20.083 C 127.000 20.030,127.075 19.895,127.166 19.785 C 127.521 19.353,129.985 15.840,130.154 15.524 C 130.522 14.836,130.468 14.825,126.891 14.872 L 123.449 14.917 122.892 15.750 C 122.211 16.770,120.659 19.057,120.377 19.457 C 119.308 20.972,118.644 21.958,118.552 22.167 C 118.491 22.304,118.398 22.454,118.345 22.500 C 118.122 22.695,116.833 24.665,116.833 24.811 C 116.833 24.900,116.775 24.997,116.704 25.028 C 116.588 25.078,116.139 25.712,114.598 28.000 C 114.321 28.412,114.033 28.825,113.959 28.917 C 113.518 29.465,112.500 31.040,112.500 31.174 C 112.500 31.262,112.425 31.333,112.333 31.333 C 112.242 31.333,112.167 31.412,112.167 31.509 C 112.167 31.605,111.765 32.227,111.274 32.891 C 110.784 33.555,110.288 34.273,110.174 34.487 C 109.971 34.866,108.342 37.216,108.003 37.618 C 107.910 37.729,107.833 37.868,107.833 37.928 C 107.833 37.988,107.458 38.552,107.000 39.182 C 106.542 39.813,106.167 40.398,106.167 40.484 C 106.167 40.569,106.110 40.664,106.042 40.694 C 105.973 40.725,105.597 41.237,105.207 41.833 C 104.817 42.429,104.383 43.067,104.243 43.250 C 104.103 43.433,103.818 43.846,103.609 44.167 C 102.367 46.079,100.064 49.425,99.958 49.472 C 99.890 49.503,99.833 49.598,99.833 49.683 C 99.833 49.769,99.509 50.284,99.112 50.829 L 98.392 51.820 97.737 50.952 C 97.378 50.474,97.027 50.008,96.959 49.917 C 96.890 49.825,95.959 48.512,94.889 47.000 C 93.820 45.487,92.729 43.950,92.466 43.583 C 92.203 43.217,91.792 42.617,91.552 42.250 C 91.313 41.883,91.064 41.546,91.000 41.500 C 90.936 41.454,90.675 41.085,90.421 40.680 C 90.167 40.274,89.892 39.862,89.810 39.763 C 89.727 39.664,88.655 38.158,87.427 36.417 C 86.199 34.675,84.926 32.901,84.597 32.474 C 84.269 32.047,84.000 31.616,84.000 31.515 C 84.000 31.415,83.939 31.333,83.864 31.333 C 83.789 31.333,83.560 31.035,83.355 30.669 C 83.150 30.304,82.886 29.909,82.768 29.792 C 82.558 29.581,81.992 28.772,81.313 27.708 C 81.123 27.410,80.899 27.167,80.817 27.167 C 80.734 27.167,80.667 27.088,80.667 26.991 C 80.667 26.895,79.804 25.620,78.750 24.160 C 77.696 22.699,76.833 21.428,76.833 21.335 C 76.833 21.242,76.777 21.167,76.708 21.166 C 76.640 21.166,76.359 20.810,76.085 20.375 C 75.592 19.591,75.279 19.169,74.875 18.743 C 74.760 18.623,74.667 18.443,74.667 18.345 C 74.667 18.247,74.609 18.167,74.538 18.167 C 74.467 18.167,74.268 17.904,74.095 17.583 C 73.922 17.262,73.718 17.000,73.640 17.000 C 73.563 17.000,73.500 16.922,73.500 16.826 C 73.500 16.731,73.198 16.243,72.828 15.743 L 72.156 14.833 68.745 14.833 C 65.427 14.833,65.333 14.843,65.333 15.172 M139.667 14.980 C 139.667 15.155,141.011 16.396,142.458 17.557 C 143.031 18.017,143.500 18.455,143.500 18.530 C 143.500 18.605,143.585 18.667,143.689 18.667 C 143.793 18.667,144.038 18.835,144.233 19.042 C 144.427 19.248,144.999 19.752,145.502 20.162 C 146.005 20.572,146.585 21.083,146.792 21.296 C 146.998 21.509,147.167 21.645,147.167 21.598 C 147.167 21.550,147.376 21.715,147.632 21.964 C 147.888 22.213,148.426 22.679,148.828 23.000 C 149.229 23.321,149.751 23.772,149.987 24.003 C 150.223 24.233,150.960 24.860,151.625 25.396 C 152.290 25.932,152.833 26.437,152.833 26.519 C 152.833 26.600,152.940 26.667,153.069 26.667 C 153.199 26.667,153.331 26.723,153.361 26.792 C 153.392 26.860,153.759 27.217,154.177 27.583 C 155.094 28.388,156.617 29.707,157.104 30.118 C 157.751 30.665,159.389 32.081,159.571 32.251 C 159.669 32.343,160.162 32.751,160.667 33.158 C 161.171 33.564,161.742 34.070,161.936 34.282 C 162.130 34.494,162.333 34.667,162.387 34.667 C 162.441 34.667,162.657 34.835,162.868 35.042 C 163.078 35.248,163.547 35.651,163.910 35.938 L 164.570 36.460 163.949 37.063 C 163.607 37.395,163.295 37.667,163.255 37.667 C 163.215 37.667,163.004 37.835,162.786 38.042 C 162.569 38.248,161.954 38.792,161.421 39.250 C 160.888 39.708,160.332 40.199,160.184 40.341 C 160.037 40.483,159.504 40.932,159.000 41.340 C 158.496 41.747,157.885 42.269,157.643 42.499 C 157.401 42.729,157.026 43.065,156.810 43.247 C 155.246 44.562,154.238 45.419,154.167 45.494 C 154.081 45.586,152.283 47.134,151.436 47.846 C 151.172 48.068,150.872 48.325,150.769 48.417 C 150.667 48.508,150.096 48.993,149.500 49.493 C 148.904 49.994,148.295 50.519,148.146 50.660 C 147.997 50.801,147.477 51.254,146.990 51.667 C 146.503 52.079,145.937 52.567,145.732 52.750 C 145.304 53.133,144.998 53.395,143.500 54.657 C 142.904 55.159,142.251 55.741,142.050 55.951 C 141.848 56.161,141.641 56.333,141.590 56.333 C 141.539 56.333,141.254 56.567,140.957 56.854 C 140.660 57.140,140.248 57.486,140.042 57.623 C 139.087 58.256,139.472 58.333,143.591 58.333 L 147.515 58.333 147.932 57.917 C 148.161 57.688,148.393 57.500,148.446 57.500 C 148.500 57.500,148.666 57.360,148.815 57.188 C 148.964 57.016,149.648 56.408,150.334 55.836 C 151.852 54.573,153.569 53.078,154.215 52.458 C 154.477 52.206,154.727 52.000,154.768 52.000 C 154.810 52.000,155.055 51.794,155.311 51.542 C 155.568 51.290,155.959 50.935,156.181 50.753 C 156.926 50.141,158.749 48.595,158.833 48.503 C 158.879 48.453,159.441 47.963,160.082 47.414 C 160.723 46.866,161.449 46.229,161.695 46.000 C 162.291 45.444,163.791 44.163,164.323 43.756 C 164.558 43.576,164.862 43.312,165.000 43.169 C 165.137 43.027,165.775 42.462,166.417 41.914 C 167.058 41.365,167.621 40.879,167.668 40.833 C 167.715 40.787,167.956 40.570,168.205 40.350 L 168.657 39.951 169.787 40.928 C 170.408 41.466,171.107 42.096,171.340 42.328 C 171.573 42.560,172.379 43.268,173.132 43.901 C 173.884 44.534,174.500 45.115,174.500 45.193 C 174.500 45.270,174.585 45.333,174.689 45.333 C 174.793 45.333,174.999 45.471,175.147 45.639 C 175.295 45.807,175.979 46.422,176.667 47.007 C 177.354 47.591,178.029 48.185,178.167 48.326 C 178.304 48.468,179.242 49.293,180.250 50.161 C 181.258 51.029,182.235 51.891,182.420 52.078 C 182.604 52.264,183.242 52.825,183.836 53.324 C 184.430 53.824,185.075 54.405,185.269 54.616 C 185.463 54.827,185.707 55.000,185.811 55.000 C 185.915 55.000,186.000 55.063,186.000 55.141 C 186.000 55.218,186.615 55.799,187.366 56.432 C 188.117 57.065,188.901 57.752,189.108 57.958 C 189.490 58.338,197.672 58.578,197.664 58.208 C 197.659 57.972,197.413 57.731,195.750 56.328 C 194.833 55.555,193.971 54.808,193.833 54.667 C 193.696 54.526,193.171 54.076,192.667 53.667 C 192.162 53.258,191.487 52.682,191.167 52.388 C 190.462 51.742,189.957 51.304,189.112 50.608 C 188.762 50.320,188.162 49.794,187.779 49.441 C 187.396 49.087,186.652 48.458,186.125 48.041 C 185.598 47.625,185.167 47.220,185.167 47.142 C 185.167 47.064,185.054 47.000,184.917 47.000 C 184.779 47.000,184.667 46.935,184.667 46.856 C 184.667 46.776,184.088 46.233,183.381 45.648 C 182.673 45.063,181.929 44.434,181.727 44.250 C 181.331 43.890,181.146 43.732,179.500 42.340 C 178.904 41.836,178.342 41.343,178.250 41.243 C 178.158 41.144,177.596 40.656,177.000 40.158 C 176.404 39.660,175.879 39.211,175.833 39.161 C 175.787 39.110,175.094 38.521,174.292 37.850 C 172.623 36.455,172.670 36.548,173.364 36.000 C 173.654 35.771,173.973 35.508,174.071 35.417 C 174.169 35.325,174.737 34.842,175.333 34.343 C 175.929 33.845,176.492 33.356,176.583 33.257 C 176.726 33.102,177.920 32.077,179.312 30.914 C 179.530 30.732,179.830 30.466,179.979 30.324 C 180.128 30.181,180.963 29.470,181.833 28.745 C 182.704 28.020,183.454 27.386,183.500 27.336 C 183.546 27.286,184.108 26.796,184.750 26.248 C 185.392 25.699,185.954 25.212,186.000 25.166 C 186.046 25.119,186.571 24.672,187.167 24.172 C 187.762 23.672,188.372 23.148,188.521 23.007 C 188.670 22.866,189.190 22.412,189.677 22.000 C 190.164 21.587,190.727 21.100,190.930 20.917 C 191.132 20.733,191.576 20.358,191.917 20.083 C 192.258 19.808,192.660 19.468,192.810 19.327 C 192.961 19.185,193.571 18.661,194.167 18.161 C 194.762 17.661,195.287 17.214,195.333 17.168 C 195.379 17.121,195.923 16.646,196.542 16.111 C 197.160 15.576,197.667 15.070,197.667 14.986 C 197.667 14.898,195.995 14.835,193.708 14.837 L 189.750 14.841 188.917 15.590 C 188.458 16.002,187.933 16.476,187.750 16.644 C 187.567 16.812,186.929 17.350,186.333 17.840 C 185.737 18.330,185.099 18.885,184.915 19.074 C 184.731 19.262,184.168 19.754,183.665 20.165 C 183.162 20.577,182.548 21.102,182.302 21.332 C 181.622 21.967,181.170 22.355,180.167 23.168 C 179.662 23.576,179.137 24.026,179.000 24.167 C 178.862 24.308,178.000 25.058,177.083 25.834 C 176.167 26.610,175.379 27.283,175.333 27.331 C 175.287 27.378,174.725 27.865,174.083 28.414 C 173.442 28.962,172.795 29.543,172.647 29.705 C 172.499 29.867,172.330 30.000,172.272 30.000 C 172.214 30.000,172.032 30.131,171.867 30.292 C 171.703 30.452,171.169 30.921,170.682 31.333 C 170.195 31.746,169.586 32.290,169.328 32.542 C 168.716 33.140,168.311 32.962,166.764 31.416 C 166.565 31.216,165.580 30.352,164.576 29.494 C 163.572 28.636,162.712 27.887,162.667 27.830 C 162.621 27.772,161.946 27.171,161.167 26.493 C 160.387 25.816,159.712 25.221,159.667 25.172 C 159.621 25.123,159.058 24.634,158.417 24.084 C 157.775 23.535,157.167 23.010,157.065 22.917 C 156.227 22.159,153.004 19.331,152.605 19.005 C 152.433 18.865,152.170 18.629,152.021 18.482 C 151.872 18.335,151.188 17.741,150.500 17.163 C 149.813 16.584,149.091 15.936,148.897 15.722 C 148.703 15.508,148.468 15.333,148.373 15.333 C 148.279 15.333,148.159 15.221,148.106 15.083 C 147.997 14.799,139.667 14.697,139.667 14.980 M209.000 36.583 L 209.000 58.333 211.917 58.333 L 214.833 58.333 214.833 36.583 L 214.833 14.833 211.917 14.833 L 209.000 14.833 209.000 36.583 M36.500 19.264 C 39.647 19.660,40.876 19.854,41.667 20.079 C 42.079 20.196,42.754 20.383,43.167 20.494 C 44.587 20.876,47.537 22.304,48.297 22.978 C 48.569 23.219,48.932 23.541,49.104 23.692 C 50.726 25.121,51.685 27.354,51.987 30.404 C 52.218 32.741,52.220 40.372,51.991 42.750 C 51.497 47.864,49.113 50.618,43.583 52.463 C 42.084 52.963,41.491 53.101,38.833 53.569 C 32.308 54.717,20.121 54.279,15.083 52.716 C 13.858 52.335,12.295 51.746,11.833 51.489 C 11.696 51.413,11.308 51.201,10.971 51.018 C 9.907 50.440,7.673 48.427,7.669 48.042 C 7.668 47.927,7.609 47.833,7.538 47.833 C 7.467 47.833,7.271 47.552,7.103 47.208 C 6.934 46.865,6.731 46.455,6.650 46.297 C 6.414 45.834,6.150 44.672,5.976 43.333 C 5.748 41.574,5.898 29.305,6.160 28.333 C 6.364 27.576,6.409 27.453,6.936 26.250 C 8.450 22.788,13.147 20.298,19.667 19.501 C 20.446 19.406,21.196 19.281,21.333 19.224 C 22.260 18.840,33.366 18.869,36.500 19.264 M355.670 25.225 C 355.989 25.440,357.037 26.091,358.000 26.672 C 358.962 27.252,360.030 27.901,360.373 28.114 L 360.996 28.502 359.790 29.687 C 358.317 31.133,358.641 31.232,357.194 28.893 C 356.521 27.806,355.676 26.448,355.316 25.875 C 354.613 24.756,354.710 24.577,355.670 25.225 M376.404 25.042 C 376.340 25.156,375.498 26.537,374.532 28.111 L 372.777 30.971 371.578 29.777 C 370.141 28.347,369.963 28.649,373.506 26.497 C 376.226 24.844,376.626 24.643,376.404 25.042 M358.167 31.542 C 358.167 31.565,358.025 31.958,357.853 32.417 C 357.032 34.597,357.035 36.887,357.859 38.810 C 358.248 39.717,358.195 39.776,357.205 39.539 C 356.772 39.435,355.779 39.199,355.000 39.015 C 354.221 38.831,352.196 38.347,350.500 37.940 C 348.804 37.533,346.067 36.881,344.417 36.492 C 340.767 35.629,340.771 35.632,342.697 35.180 C 343.551 34.979,345.000 34.636,345.917 34.416 C 346.833 34.197,348.371 33.829,349.333 33.599 C 354.995 32.247,356.803 31.809,357.250 31.679 C 357.767 31.529,358.167 31.469,358.167 31.542 M373.814 31.664 C 374.145 31.754,375.242 32.020,376.250 32.254 C 377.258 32.488,378.833 32.861,379.750 33.084 C 381.339 33.470,385.137 34.381,388.458 35.172 C 390.328 35.617,390.343 35.670,388.707 36.049 C 387.997 36.214,386.629 36.539,385.667 36.770 C 383.360 37.326,380.822 37.930,378.667 38.436 C 376.920 38.847,375.693 39.149,374.397 39.487 C 373.008 39.850,372.964 39.812,373.434 38.655 C 374.191 36.793,374.139 33.963,373.317 32.260 C 372.886 31.369,372.857 31.404,373.814 31.664 M359.215 41.052 C 359.539 41.447,360.073 41.953,360.401 42.177 C 360.729 42.400,360.998 42.630,360.999 42.687 C 361.000 42.810,354.826 46.550,354.753 46.471 C 354.725 46.441,355.140 45.704,355.674 44.833 C 356.207 43.962,357.040 42.594,357.524 41.792 C 358.550 40.092,358.461 40.131,359.215 41.052 M374.647 43.353 C 375.675 45.014,376.483 46.405,376.444 46.445 C 376.380 46.509,370.773 43.136,370.450 42.839 C 370.334 42.732,372.420 40.409,372.681 40.354 C 372.735 40.343,373.619 41.692,374.647 43.353 M363.583 43.771 C 365.188 44.204,367.312 44.014,369.042 43.282 C 369.758 42.978,369.797 43.051,369.507 44.147 C 369.359 44.707,368.872 46.747,368.270 49.333 C 367.876 51.023,366.856 55.247,366.407 57.048 C 366.183 57.946,366.000 58.785,366.000 58.912 C 366.000 59.245,365.673 60.061,365.577 59.966 C 365.500 59.889,365.253 58.915,364.421 55.417 C 364.203 54.500,363.832 52.944,363.596 51.958 C 363.360 50.973,362.974 49.360,362.738 48.375 C 362.502 47.390,362.127 45.849,361.905 44.952 C 361.394 42.894,361.385 42.968,362.125 43.282 C 362.469 43.427,363.125 43.647,363.583 43.771 " stroke="none" fill="#8c8484" fill-rule="evenodd"></path><path id="path3" d="M371.667 29.750 C 371.978 30.071,372.270 30.333,372.315 30.333 C 372.361 30.333,372.144 30.071,371.833 29.750 C 371.522 29.429,371.230 29.167,371.185 29.167 C 371.139 29.167,371.356 29.429,371.667 29.750 " stroke="none" fill="#dcd4d4" fill-rule="evenodd"></path><path id="path4" d="M359.573 29.708 L 359.083 30.250 359.625 29.760 C 360.130 29.304,360.243 29.167,360.115 29.167 C 360.086 29.167,359.842 29.410,359.573 29.708 " stroke="none" fill="#a49ca4" fill-rule="evenodd"></path></g></svg>