<?xml version="1.0" encoding="utf-8"?>
<!-- Generator: Adobe Illustrator 25.4.0, SVG Export Plug-In . SVG Version: 6.00 Build 0)  -->
<svg version="1.1" xmlns="http://www.w3.org/2000/svg" xmlns:xlink="http://www.w3.org/1999/xlink" x="0px" y="0px"
	 viewBox="0 0 1313.1 219.6" style="enable-background:new 0 0 1313.1 219.6;" xml:space="preserve">
<style type="text/css">
	.st0{fill:#1E395E;}
	.st1{fill:#CFCFCD;}
	.st2{fill:#C8C7C6;}
	.st3{fill:#D0D0CD;}
	.st4{fill:#E42326;}
	.st5{fill:#1F395E;}
	.st6{fill:#D0D0CF;}
	.st7{clip-path:url(#SVGID_00000072979278502355329750000013605842402865776800_);fill:#1E395E;}
	.st8{clip-path:url(#SVGID_00000183927577455323280290000013903053443124465295_);fill:#1E395E;}
</style>
<g id="Guides">
</g>
<g id="Logo_Total">
	<g>
		<g>
			<path class="st0" d="M1166.5,157.5c2.6,0.1,4.8,0.3,6.6,0.7c1.8,0.4,3.6,1.2,5.3,2.4c2,1.4,3.5,3.2,4.5,5.4
				c1,2.1,1.5,4.5,1.5,7.1c0,2.3-0.4,4.5-1.1,6.5c-0.8,2-1.8,3.7-3.3,5.1c-1.4,1.4-3.1,2.5-5.1,3.3c-2,0.8-4.1,1.2-6.5,1.2
				c-2.4,0-4.6-0.4-6.6-1.2c-2-0.8-3.7-1.9-5.2-3.4c-1.4-1.5-2.5-3.2-3.3-5.2c-0.8-2-1.1-4.2-1.1-6.6c0-3.1,0.7-5.9,2.1-8.2
				c1.4-2.3,3.5-4.1,6.3-5.4l3.1,7.4c-1.5,0.6-2.7,1.4-3.5,2.5c-0.9,1.1-1.3,2.5-1.3,4c0,1.2,0.3,2.3,0.8,3.3c0.5,1,1.3,1.8,2.2,2.5
				c0.9,0.7,1.9,1.2,3.1,1.5c1.1,0.3,2.3,0.5,3.5,0.5s2.3-0.2,3.5-0.5c1.1-0.3,2.2-0.9,3.1-1.5c0.9-0.7,1.6-1.5,2.1-2.5
				c0.5-1,0.8-2.1,0.8-3.4c0-1.8-0.5-3.2-1.4-4.4c-0.9-1.1-2.2-1.8-3.9-2v6.4h-6.2V157.5z"/>
			<path class="st0" d="M1183.4,128.8v9.8l-11.6,7.4v0.1h11.6v7.8h-30.2v-11.7c0-3.1,0.8-5.7,2.3-7.6c1.5-1.9,3.9-2.9,7-2.9
				c2.2,0,4,0.6,5.6,1.7c1.6,1.2,2.5,2.8,2.9,4.9L1183.4,128.8z M1166.7,146.1v-0.8c0-0.7,0-1.4-0.1-2c-0.1-0.6-0.3-1.2-0.5-1.7
				c-0.3-0.5-0.7-0.9-1.2-1.2c-0.5-0.3-1.1-0.5-1.9-0.5c-0.8,0-1.4,0.2-1.9,0.5c-0.5,0.3-0.9,0.7-1.2,1.2c-0.3,0.5-0.4,1.1-0.5,1.7
				c-0.1,0.6-0.1,1.3-0.1,2v0.8H1166.7z"/>
			<path class="st0" d="M1160.4,114.8c0.4,1,1,1.9,1.8,2.7c0.8,0.8,1.6,1.4,2.6,1.9c1,0.4,1.9,0.7,3,0.7c1.3,0,2.5-0.2,3.6-0.7
				c1.1-0.4,2.1-1.1,2.9-1.8c0.8-0.8,1.5-1.7,1.9-2.7c0.4-1,0.7-2.1,0.7-3.3c0-1.1-0.2-2.2-0.7-3.3c-0.4-1-1.1-2-1.9-2.7
				c-0.8-0.8-1.8-1.4-2.9-1.8c-1.1-0.4-2.3-0.7-3.6-0.7c-1,0-2,0.2-3,0.7c-1,0.4-1.8,1.1-2.6,1.8c-0.7,0.8-1.3,1.7-1.8,2.7
				c-0.4,1-0.6,2.1-0.6,3.3C1159.8,112.7,1160,113.8,1160.4,114.8 M1153.3,105.3c0.8-2,1.8-3.8,3.2-5.4c1.4-1.6,3.1-2.8,5-3.7
				c1.9-0.9,4-1.3,6.2-1.3c2.4,0,4.6,0.4,6.7,1.2c2.1,0.8,3.8,2,5.3,3.5c1.5,1.5,2.6,3.3,3.4,5.3c0.8,2.1,1.2,4.3,1.2,6.6
				c0,2.4-0.4,4.6-1.2,6.6c-0.8,2.1-2,3.8-3.5,5.3c-1.5,1.5-3.3,2.7-5.3,3.5c-2,0.8-4.3,1.2-6.7,1.2c-2.2,0-4.3-0.4-6.2-1.3
				c-1.9-0.9-3.6-2.1-5-3.7c-1.4-1.6-2.5-3.4-3.2-5.4c-0.8-2-1.1-4.1-1.1-6.3C1152.2,109.4,1152.6,107.3,1153.3,105.3z"/>
			<path class="st0" d="M1153.2,65.1h17c2.5,0,4.5,0.2,6.2,0.6c1.7,0.4,3.2,1.2,4.5,2.6c1.2,1.2,2,2.7,2.6,4.4
				c0.5,1.8,0.8,3.6,0.8,5.6c0,1.9-0.3,3.8-0.8,5.6c-0.5,1.8-1.4,3.3-2.6,4.4c-1.3,1.3-2.8,2.2-4.5,2.6c-1.7,0.4-3.7,0.6-6.2,0.6
				h-17v-7.8h15.9c1.2,0,2.3,0,3.2-0.1c0.9-0.1,1.7-0.3,2.5-0.7c0.8-0.3,1.4-0.9,1.9-1.6c0.5-0.7,0.7-1.7,0.7-2.9
				c0-1.2-0.2-2.2-0.7-2.9c-0.5-0.7-1.1-1.3-1.8-1.6c-0.8-0.3-1.6-0.6-2.5-0.7c-0.9-0.1-2-0.1-3.2-0.1h-15.9V65.1z"/>
			<path class="st0" d="M1153.2,60.1v-12c0-3.4,0.8-6.1,2.5-8c1.6-2,4.1-2.9,7.5-2.9c3.5,0,6.1,0.9,7.7,2.7c1.7,1.8,2.5,4.5,2.5,8
				v4.4h10v7.8H1153.2z M1167,52.3v-1.3c0-1,0-1.7-0.1-2.3c-0.1-0.6-0.2-1.1-0.4-1.6c-0.2-0.5-0.6-0.9-1.1-1.2
				c-0.5-0.3-1.2-0.5-2.1-0.5c-0.9,0-1.6,0.1-2.2,0.4c-0.5,0.3-0.9,0.7-1.2,1.2c-0.2,0.5-0.4,1-0.4,1.7c-0.1,0.6-0.1,1.4-0.1,2.4
				v1.3H1167z"/>
		</g>
		<g>
			<polygon class="st1" points="1085.3,35.6 1085.3,100.7 1074.6,100.7 1074.6,45.6 956.1,45.6 956.1,180.1 989.1,180.1 989.1,91.4 
				999.1,91.4 999.1,101 999.2,101 999.2,190.6 945.3,190.6 945.3,35.6 			"/>
			<g>
				<path class="st2" d="M1085.3,35.6v41.2c0,0,0,0,0,0L1085.3,35.6L1085.3,35.6z"/>
			</g>
			<g>
				<rect x="989.1" y="91.3" class="st3" width="10" height="0.2"/>
				<rect x="999.1" y="91.3" class="st4" width="0.1" height="9.8"/>
			</g>
			<circle class="st5" cx="1046.6" cy="110.5" r="52.2"/>
			<path class="st6" d="M1098.1,35.6v0.2h-7.3v87.3h-86.2v67.5h139.8v-155H1098.1z M1133.8,179.9h-117.9v-45.4h81.1v0h4V46.3h32.9
				V179.9z"/>
		</g>
		<g id="Core">
			<defs>
				<rect id="SVGID_1_" x="32.9" y="-151.5" width="918.6" height="649.5"/>
			</defs>
			<clipPath id="SVGID_00000098927898299136482610000016513078633955513791_">
				<use xlink:href="#SVGID_1_"  style="overflow:visible;"/>
			</clipPath>
			<path style="clip-path:url(#SVGID_00000098927898299136482610000016513078633955513791_);fill:#1E395E;" d="M596.8,173.2
				c-3.6,1.1-7.1,2.2-10.7,3.3c-8,2.1-15.3,3.1-21.9,2.9c-19.8-0.4-36.5-7.5-50-21.2c-13.3-13.5-20.1-30-20.4-49.5
				c-0.3-20,6.5-37,20.4-51c13.9-14,31.4-21.2,52.5-21.6c10-0.2,20,1.8,30,6.2v44.3c-5.3-4-13.6-6-24.8-6.1
				c-7.6-0.1-14,2.2-19.2,6.8c-5.4,4.8-8.2,11.2-8.5,19.2c-0.3,7.7,2.3,14.4,7.7,19.9c5.4,5.5,12.2,8.2,20.3,7.9
				c4.7-0.1,9.6-1.1,14.9-2.9c4.9-1.6,8.1-3.2,9.6-4.8V173.2z"/>
			<path style="clip-path:url(#SVGID_00000098927898299136482610000016513078633955513791_);fill:#1E395E;" d="M677.9,129
				c-0.1-3.8-1.3-7.2-3.7-10c-2.4-2.8-5.4-4.3-9-4.3c-3.8,0-6.9,1.5-9.5,4.5c-2.6,3-3.9,6.5-4,10.5c-0.1,3.8,1.1,7.1,3.6,9.9
				c2.5,2.8,5.6,4.2,9.5,4.2c4.1,0,7.4-1.5,9.9-4.6C676.9,136.5,678,133.1,677.9,129 M719,129.2c0.1,14.5-4.9,26.5-15.1,35.9
				c-10.2,9.5-23.3,14.2-39.4,14.2c-14.9,0-27.7-4.8-38.2-14.5c-10.6-9.7-15.8-21.6-15.6-35.7c0.1-14.1,5.3-25.7,15.6-35
				c10.2-9.3,23-14,38.2-14.1c16.4-0.1,29.6,4.5,39.7,13.9C713.9,102.9,718.9,114.7,719,129.2"/>
			<path style="clip-path:url(#SVGID_00000098927898299136482610000016513078633955513791_);fill:#1E395E;" d="M805.3,118.1
				c-2.6-0.8-5.4-1.1-8.6-1c-14.4,0.4-21.7,8.1-21.7,22.9v36.4H732V83.2h41.4v11.3c-0.1-0.1,1.3-1.5,4.2-4.4
				c3.3-3.2,6.5-5.3,9.4-6.4c4.8-1.7,9.2-2.6,13.3-2.6c1.7,0,3.3,0.1,5,0.4V118.1z"/>
			<path style="clip-path:url(#SVGID_00000098927898299136482610000016513078633955513791_);fill:#1E395E;" d="M882.2,118.9
				c0.1-0.6,0.1-1.3,0.1-1.9c0-2.9-1-5.3-2.9-7.4c-1.9-2-4.4-3.1-7.4-3.2c-3.1-0.1-5.8,1.2-8.2,3.8c-2.4,2.6-3.3,5.5-2.8,8.7H882.2z
				 M925,136.9h-64.6c-0.1,0.6-0.1,1.3-0.1,1.9c0,3.7,1.1,6.8,3.4,9.3c2.3,2.5,5.1,3.8,8.5,3.7c5.4-0.1,8.8-2.1,10-5.8h41.6
				c-2.2,10.8-8.5,19.2-19.1,25.2c-9.7,5.6-21.4,8.4-35.1,8.5c-15.8,0.1-28.3-4.4-37.5-13.5c-9.1-8.9-13.7-20.7-14-35.5
				c-0.3-15.7,5.1-28.4,16.1-38c10.3-9.1,23-13.5,38.2-13.2c17.4,0.3,30.7,5.6,40.2,15.9c8.5,9.4,12.8,21.5,12.8,36.5
				C925.2,133.6,925.2,135.3,925,136.9"/>
		</g>
		<rect id="bar__x7C_" x="434.3" y="32" class="st0" width="43.1" height="144.4"/>
		<g id="Rea">
			<defs>
				<rect id="SVGID_00000058589394123495622080000014202537951183716483_" x="32.9" y="-151.5" width="918.6" height="649.5"/>
			</defs>
			<clipPath id="SVGID_00000116926306383968564540000004153045663217990827_">
				<use xlink:href="#SVGID_00000058589394123495622080000014202537951183716483_"  style="overflow:visible;"/>
			</clipPath>
			<path style="clip-path:url(#SVGID_00000116926306383968564540000004153045663217990827_);fill:#1E395E;" d="M128.5,89.7
				c-0.4-7.1-4.7-10.6-13-10.6h-10.3v22.8h11c3.6,0,6.5-1.1,8.9-3.3C127.6,96.4,128.7,93.5,128.5,89.7 M182.5,176.4h-53.1
				l-24.1-44.6v44.6H59.2v-133h68.6c14.2,0,25.6,2.8,34,8.4c10.3,6.8,15.5,17.5,15.8,32c0.2,9.7-2.2,17.8-7.1,24.3
				c-3.5,4.6-8.1,8.2-13.9,10.8c-4.7,2.1-7.2,2.9-7.4,2.5L182.5,176.4z"/>
			<path style="clip-path:url(#SVGID_00000116926306383968564540000004153045663217990827_);fill:#1E395E;" d="M243.9,118.9
				c0.1-0.6,0.1-1.3,0.1-1.9c0-2.9-1-5.3-2.9-7.4c-2-2-4.4-3.1-7.4-3.2c-3.1-0.1-5.8,1.2-8.2,3.8c-2.4,2.6-3.3,5.5-2.8,8.7H243.9z
				 M286.7,136.9h-64.6c-0.1,0.6-0.1,1.3-0.1,1.9c0,3.7,1.1,6.8,3.4,9.3c2.3,2.5,5.1,3.8,8.5,3.7c5.4-0.1,8.8-2.1,10-5.8h41.6
				c-2.2,10.8-8.5,19.2-19.1,25.2c-9.7,5.6-21.4,8.4-35.1,8.5c-15.8,0.1-28.3-4.4-37.5-13.5c-9.1-8.9-13.7-20.7-14-35.5
				c-0.3-15.7,5.1-28.4,16.1-38c10.3-9.1,23-13.5,38.2-13.2c17.4,0.3,30.7,5.6,40.2,15.9c8.5,9.4,12.8,21.5,12.8,36.5
				C286.9,133.6,286.8,135.3,286.7,136.9"/>
			<path style="clip-path:url(#SVGID_00000116926306383968564540000004153045663217990827_);fill:#1E395E;" d="M365.6,130.5
				c0.1-3.7-1.1-6.9-3.7-9.7c-2.6-2.7-5.7-4.1-9.4-4.1c-3.6,0-6.6,1.2-9.2,3.7c-2.6,2.5-4,5.5-4,9.1c-0.1,3.7,1.2,7,3.8,9.7
				c2.6,2.8,5.6,4.1,9.2,3.9c3.6-0.1,6.7-1.4,9.3-3.8C364.1,136.9,365.5,134,365.6,130.5 M406.4,176.4h-42.8v-11.2
				c0.1,0.1-1.1,1.3-3.6,3.5c-3.1,2.7-6.3,4.9-9.6,6.6c-4.7,2.4-9.5,3.6-14.3,3.6c-11.6-0.1-21-5.3-28-15.8
				c-6.3-9.5-9.5-20.9-9.5-34.2c0-12.7,3-23.4,9-32c6.8-9.8,16.3-14.8,28.4-15c10.4-0.1,19.6,3.9,27.6,12V83.3l42.8-0.1V176.4z"/>
		</g>
	</g>
</g>
</svg>
