<svg id="Ebene_1" data-name="Ebene 1" xmlns="http://www.w3.org/2000/svg" viewBox="0 0 770.71 163.3"><defs><style>.cls-1{fill:#b51a82;}.cls-2{fill:#66696c;}</style></defs><title>Sy_Logo_RGB</title><path class="cls-1" d="M175.59,274.16A124.33,124.33,0,0,0,146.1,322.5a101.27,101.27,0,0,0-5.36,23.56,2.13,2.13,0,0,1-2.08,2.16l-35.07.06a2.11,2.11,0,0,1-1-.22,1.76,1.76,0,0,1-1.19-1.95A96.63,96.63,0,0,1,106,325.48c11.91-37.28,40.07-66.25,75.84-81.64a151.13,151.13,0,0,1,15.58-5.59c-2.57-12-10.57-21.67-22.22-21.67H61.2c-12.93,0-25.89,11.27-25.89,25.2V353.27c0,13.93,13,25.47,25.89,25.47h114c12.92,0,22.28-11.54,22.28-25.47V257.18a100.55,100.55,0,0,0-21.87,17ZM96.43,347.93H95.3a2,2,0,0,1-1.87-.91c-9.6-22.56-19.19-45-28.79-67.59-.61-1.45.07-3.22,1.87-3.21q17.55.06,35.11.08a1.77,1.77,0,0,1,2,1.09q4.74,10,9.47,20.05c1.17,2.48.24,3.37-1.17,5.77a88.26,88.26,0,0,0-6.24,12.59c-3.72,9.56-6.6,19.82-7.13,30.13a2.06,2.06,0,0,1-2.16,2Z" transform="translate(-35.31 -216.58)"/><path class="cls-1" d="M429.2,373V362c0-4.33-2.33-5.72-5.24-5.72a13.39,13.39,0,0,0-5.37,1.27,4,4,0,0,0-3.24-1.27,9.36,9.36,0,0,0-4.72,1.46v-.59a.61.61,0,0,0-.61-.63H408.4a.6.6,0,0,0-.61.63V373a.57.57,0,0,0,.55.62h1.71a.6.6,0,0,0,.58-.62V359.92a10.11,10.11,0,0,1,3.95-1.21c1.68,0,2.49.56,2.49,3.26V373a.57.57,0,0,0,.55.62h1.71a.6.6,0,0,0,.58-.62V362a8.67,8.67,0,0,0-.29-2.42,11.55,11.55,0,0,1,3.79-.84c1.68,0,2.94.71,2.94,3.33v11a.64.64,0,0,0,.65.62h1.55a.64.64,0,0,0,.65-.62" transform="translate(-35.31 -216.58)"/><path class="cls-1" d="M447.47,365.3v-1.68c0-4.41-2.39-7.27-7.11-7.27s-7.18,2.83-7.18,7.27v2.8c0,5.78,3.62,7.46,7.34,7.46a30.67,30.67,0,0,0,5.79-.53c.52-.09.64-.31.64-.71v-1.06c0-.31-.25-.44-.51-.44h-.16a45.69,45.69,0,0,1-5.76.35c-3,0-4.5-1.37-4.5-5.07V366h10.84a.6.6,0,0,0,.61-.68Zm-2.88-1.4H436v-.28c0-3.36,1.55-4.88,4.34-4.88s4.23,1.37,4.23,4.88v.28Z" transform="translate(-35.31 -216.58)"/><path class="cls-1" d="M472.93,373V362c0-4.33-2.33-5.72-5.24-5.72a13.39,13.39,0,0,0-5.37,1.27,4,4,0,0,0-3.24-1.27,9.36,9.36,0,0,0-4.72,1.46v-.59a.61.61,0,0,0-.61-.63h-1.62a.6.6,0,0,0-.61.63V373a.57.57,0,0,0,.55.62h1.71a.6.6,0,0,0,.58-.62V359.92a10.11,10.11,0,0,1,3.95-1.21c1.68,0,2.49.56,2.49,3.26V373a.57.57,0,0,0,.55.62h1.71a.6.6,0,0,0,.58-.62V362a8.67,8.67,0,0,0-.29-2.42,11.55,11.55,0,0,1,3.79-.84c1.68,0,2.94.71,2.94,3.33v11a.64.64,0,0,0,.65.62h1.55a.64.64,0,0,0,.65-.62Z" transform="translate(-35.31 -216.58)"/><path class="cls-1" d="M491.17,366.2V364c0-4.88-2.36-7.61-7.05-7.61a23.65,23.65,0,0,0-3.79.31v-5.79a.6.6,0,0,0-.61-.59h-1.65a.57.57,0,0,0-.58.59v21.77c0,.43.1.62.68.71a32.81,32.81,0,0,0,5.95.53c4.85,0,7.05-3,7.05-7.68Zm-2.85,0c0,3.39-1,5.29-4.2,5.29-1.1,0-2.69-.1-3.79-.19V359a25.91,25.91,0,0,1,3.79-.22c3.17,0,4.2,1.9,4.2,5.22v2.24Z" transform="translate(-35.31 -216.58)"/><path class="cls-1" d="M508.86,365.3v-1.68c0-4.41-2.39-7.27-7.11-7.27s-7.18,2.83-7.18,7.27v2.8c0,5.78,3.62,7.46,7.34,7.46a30.67,30.67,0,0,0,5.79-.53c.52-.09.64-.31.64-.71v-1.06c0-.31-.25-.44-.51-.44h-.16a45.69,45.69,0,0,1-5.76.35c-3,0-4.5-1.37-4.5-5.07V366h10.84a.6.6,0,0,0,.61-.68ZM506,363.9h-8.57v-.28c0-3.36,1.55-4.88,4.34-4.88s4.23,1.37,4.23,4.88v.28Z" transform="translate(-35.31 -216.58)"/><path class="cls-1" d="M520.89,358.18v-1.27c0-.38-.22-.56-.67-.56a8,8,0,0,0-4.57,1.49v-.65a.6.6,0,0,0-.61-.63h-1.52a.6.6,0,0,0-.61.63V373a.63.63,0,0,0,.61.62h1.58a.66.66,0,0,0,.65-.62V360a8.56,8.56,0,0,1,4.47-1.3c.45,0,.67-.19.67-.53Z" transform="translate(-35.31 -216.58)"/><path class="cls-1" d="M546.09,366.29v-2.36c0-4.57-2.46-7.58-7.21-7.58s-7.18,3-7.18,7.58v2.36c0,4.57,2.42,7.59,7.18,7.59s7.21-3,7.21-7.59Zm-2.85,0c0,3.21-1.35,5.2-4.36,5.2s-4.34-2-4.34-5.2v-2.36c0-3.2,1.33-5.19,4.34-5.19s4.36,2,4.36,5.19v2.36Z" transform="translate(-35.31 -216.58)"/><path class="cls-1" d="M558.74,351.71v-1c0-.28-.26-.41-.62-.5a7.78,7.78,0,0,0-1.81-.19c-2.84,0-4.53,1-4.53,4.33v2.23h-3.13a.58.58,0,0,0-.62.56V358a.6.6,0,0,0,.62.56l3.13.34V373a.66.66,0,0,0,.65.62H554a.65.65,0,0,0,.61-.62V358.86H558a.55.55,0,0,0,.61-.52v-1.22a.58.58,0,0,0-.61-.56h-3.4v-2.23c0-1.71.45-2.15,2-2.15h1.56c.35,0,.58-.12.58-.47Z" transform="translate(-35.31 -216.58)"/><path class="cls-1" d="M573.33,353.21v-2.49a.64.64,0,0,0-.65-.62H571a.64.64,0,0,0-.65.62v2.49a.64.64,0,0,0,.65.62h1.65a.64.64,0,0,0,.65-.62Z" transform="translate(-35.31 -216.58)"/><path class="cls-1" d="M573.26,373V357.19a.64.64,0,0,0-.65-.63h-1.55a.64.64,0,0,0-.65.63V373a.64.64,0,0,0,.65.62h1.55a.64.64,0,0,0,.65-.62Z" transform="translate(-35.31 -216.58)"/><path class="cls-1" d="M587.65,373.2v-1.09c0-.31-.22-.44-.67-.44h-1.82c-1.29,0-1.74-.25-1.74-2V358.86h3.49a.64.64,0,0,0,.65-.62v-1.05a.64.64,0,0,0-.65-.63h-3.49v-3.38a.5.5,0,0,0-.49-.53h-.09l-1.69.25a.64.64,0,0,0-.58.62v3h-3.14a.56.56,0,0,0-.61.56V358c0,.34.26.53.61.56l3.14.34v10.85c0,3.42,1.42,4.17,4.4,4.17a15.19,15.19,0,0,0,2.1-.16c.42-.06.58-.24.58-.52Z" transform="translate(-35.31 -216.58)"/><path class="cls-1" d="M604.54,365.3v-1.68c0-4.41-2.39-7.27-7.12-7.27s-7.18,2.83-7.18,7.27v2.8c0,5.78,3.62,7.46,7.34,7.46a30.59,30.59,0,0,0,5.79-.53c.52-.09.65-.31.65-.71v-1.06c0-.31-.26-.44-.52-.44h-.16a45.57,45.57,0,0,1-5.76.35c-3,0-4.49-1.37-4.49-5.07V366h10.83a.61.61,0,0,0,.62-.68Zm-2.88-1.4h-8.57v-.28c0-3.36,1.55-4.88,4.33-4.88s4.24,1.37,4.24,4.88v.28Z" transform="translate(-35.31 -216.58)"/><path class="cls-1" d="M611.75,373V350.87a.58.58,0,0,0-.58-.59h-1.68a.58.58,0,0,0-.59.59V373a.6.6,0,0,0,.59.62h1.68a.6.6,0,0,0,.58-.62Z" transform="translate(-35.31 -216.58)"/><path class="cls-1" d="M619.8,373V350.87a.57.57,0,0,0-.58-.59h-1.68a.57.57,0,0,0-.58.59V373a.6.6,0,0,0,.58.62h1.68a.6.6,0,0,0,.58-.62Z" transform="translate(-35.31 -216.58)"/><path class="cls-1" d="M628,353.21v-2.49a.64.64,0,0,0-.65-.62h-1.65a.64.64,0,0,0-.65.62v2.49a.64.64,0,0,0,.65.62h1.65a.64.64,0,0,0,.65-.62Z" transform="translate(-35.31 -216.58)"/><path class="cls-1" d="M627.89,373V357.19a.64.64,0,0,0-.65-.63h-1.55a.64.64,0,0,0-.65.63V373a.64.64,0,0,0,.65.62h1.55a.64.64,0,0,0,.65-.62Z" transform="translate(-35.31 -216.58)"/><path class="cls-1" d="M647.56,358.06v-.81a.74.74,0,0,0-.75-.69h-7.08c-5.56,0-7.18,2.74-7.18,5.51v.25a4.46,4.46,0,0,0,1.49,3.6,2.54,2.54,0,0,0-1.33,2.24v0a2.55,2.55,0,0,0,1.49,2.43l.22.09a5,5,0,0,0-2,4v.28c0,3,2.33,4.94,7.44,4.94,5.3,0,7.37-1.83,7.37-4.82v-.25c0-2.92-3-3.79-6.21-4.57l-4.82-1.18c-.74-.19-1-.46-1-1A1.14,1.14,0,0,1,636,367a9.65,9.65,0,0,0,3.75.62c5,0,7.18-1.9,7.18-5.31v-.25a4.29,4.29,0,0,0-1.1-3.21l1.16-.21c.36-.07.59-.19.59-.59Zm-12.39,16.6a3.66,3.66,0,0,1,1.58-3.17l3.66.9c2.91.71,3.94,1.21,3.94,2.42v.25c0,1.71-.84,2.71-4.52,2.71s-4.66-1.09-4.66-2.83v-.28Zm8.93-12.34c0,1.86-.88,3.17-4.37,3.17-3.72,0-4.37-1.81-4.37-3.17v-.25c0-1.74.75-3.33,4.37-3.33s4.37,1.46,4.37,3.33v.25Z" transform="translate(-35.31 -216.58)"/><path class="cls-1" d="M664.8,365.3v-1.68c0-4.41-2.4-7.27-7.12-7.27s-7.18,2.83-7.18,7.27v2.8c0,5.78,3.62,7.46,7.34,7.46a30.59,30.59,0,0,0,5.79-.53c.52-.09.65-.31.65-.71v-1.06c0-.31-.26-.44-.52-.44h-.16a45.57,45.57,0,0,1-5.76.35c-3,0-4.49-1.37-4.49-5.07V366h10.83a.61.61,0,0,0,.62-.68Zm-2.88-1.4h-8.57v-.28c0-3.36,1.55-4.88,4.33-4.88s4.24,1.37,4.24,4.88v.28Z" transform="translate(-35.31 -216.58)"/><path class="cls-1" d="M682.46,373V362.81c0-4.13-1.75-6.46-5.63-6.46a9.94,9.94,0,0,0-5.14,1.43v-.59a.61.61,0,0,0-.62-.63h-1.62a.61.61,0,0,0-.61.63V373a.63.63,0,0,0,.61.62H671a.66.66,0,0,0,.65-.62V359.92a10.56,10.56,0,0,1,4.36-1.21c2.46,0,3.56,1,3.56,4.1V373a.64.64,0,0,0,.65.62h1.55a.64.64,0,0,0,.65-.62Z" transform="translate(-35.31 -216.58)"/><path class="cls-1" d="M698,372.85v-1.11c0-.32-.25-.47-.55-.47h-.13a33.79,33.79,0,0,1-4,.22c-2.62,0-4-1.68-4-5.16V363.9c0-3.51,1.46-5.16,4-5.16a31.8,31.8,0,0,1,4,.22h.13a.49.49,0,0,0,.55-.47v-1.12c0-.43-.13-.59-.64-.68a24.44,24.44,0,0,0-4-.34c-4.43,0-6.89,3-6.89,7.55v2.43c0,4.57,2.5,7.55,6.89,7.55a25.25,25.25,0,0,0,4-.34c.51-.09.64-.28.64-.69Z" transform="translate(-35.31 -216.58)"/><path class="cls-1" d="M715.51,365.3v-1.68c0-4.41-2.39-7.27-7.11-7.27s-7.18,2.83-7.18,7.27v2.8c0,5.78,3.62,7.46,7.34,7.46a30.67,30.67,0,0,0,5.79-.53c.52-.09.65-.31.65-.71v-1.06c0-.31-.26-.44-.52-.44h-.16a45.69,45.69,0,0,1-5.76.35c-3,0-4.5-1.37-4.5-5.07V366H714.9a.6.6,0,0,0,.61-.68Zm-2.88-1.4h-8.57v-.28c0-3.36,1.56-4.88,4.34-4.88s4.23,1.37,4.23,4.88v.28Z" transform="translate(-35.31 -216.58)"/><path class="cls-1" d="M742.42,358.06v-.81a.73.73,0,0,0-.74-.69H734.6c-5.57,0-7.18,2.74-7.18,5.51v.25a4.48,4.48,0,0,0,1.48,3.6,2.55,2.55,0,0,0-1.32,2.24v0a2.56,2.56,0,0,0,1.48,2.43l.23.09a5,5,0,0,0-2,4v.28c0,3,2.33,4.94,7.44,4.94,5.31,0,7.38-1.83,7.38-4.82v-.25c0-2.92-3-3.79-6.21-4.57L731,369.06c-.75-.19-1-.46-1-1a1.13,1.13,0,0,1,.8-1.06,9.74,9.74,0,0,0,3.76.62c5,0,7.18-1.9,7.18-5.31v-.25a4.29,4.29,0,0,0-1.1-3.21l1.16-.21c.36-.07.58-.19.58-.59ZM730,374.66a3.64,3.64,0,0,1,1.58-3.17l3.66.9c2.91.71,3.94,1.21,3.94,2.42v.25c0,1.71-.84,2.71-4.53,2.71s-4.65-1.09-4.65-2.83v-.28ZM739,362.32c0,1.86-.87,3.17-4.36,3.17-3.72,0-4.37-1.81-4.37-3.17v-.25c0-1.74.74-3.33,4.37-3.33s4.36,1.46,4.36,3.33v.25Z" transform="translate(-35.31 -216.58)"/><path class="cls-1" d="M753.94,358.18v-1.27c0-.38-.23-.56-.68-.56a7.92,7.92,0,0,0-4.56,1.49v-.65a.61.61,0,0,0-.62-.63h-1.52a.61.61,0,0,0-.61.63V373a.63.63,0,0,0,.61.62h1.59a.66.66,0,0,0,.65-.62V360a8.5,8.5,0,0,1,4.46-1.3c.45,0,.68-.19.68-.53Z" transform="translate(-35.31 -216.58)"/><path class="cls-1" d="M770.18,366.29v-2.36c0-4.57-2.46-7.58-7.22-7.58s-7.18,3-7.18,7.58v2.36c0,4.57,2.43,7.59,7.18,7.59s7.22-3,7.22-7.59Zm-2.85,0c0,3.21-1.36,5.2-4.37,5.2s-4.33-2-4.33-5.2v-2.36c0-3.2,1.32-5.19,4.33-5.19s4.37,2,4.37,5.19v2.36Z" transform="translate(-35.31 -216.58)"/><path class="cls-1" d="M787.77,373V357.19a.63.63,0,0,0-.61-.63h-1.59a.67.67,0,0,0-.65.63v13.12a10.56,10.56,0,0,1-4.36,1.21c-2.46,0-3.56-1-3.56-4.11V357.19a.64.64,0,0,0-.65-.63H774.8a.64.64,0,0,0-.65.63v10.22c0,4.14,1.75,6.47,5.63,6.47a10,10,0,0,0,5.14-1.43V373a.61.61,0,0,0,.62.62h1.62a.61.61,0,0,0,.61-.62Z" transform="translate(-35.31 -216.58)"/><path class="cls-1" d="M806,366.26V364c0-4.67-2.23-7.68-7-7.68a28.11,28.11,0,0,0-6,.71c-.58.13-.68.31-.68.72v21.39a.58.58,0,0,0,.58.59h1.65a.6.6,0,0,0,.62-.59v-5.63a24.48,24.48,0,0,0,3.78.34c4.72,0,7-2.74,7-7.62Zm-2.84,0c0,3.33-1,5.32-4.21,5.32a25.8,25.8,0,0,1-3.78-.31V359a24.18,24.18,0,0,1,3.78-.31c3.2,0,4.21,2.11,4.21,5.38v2.23Z" transform="translate(-35.31 -216.58)"/><path class="cls-1" d="M695,338.72V328.51c0-1.57-1.31-2.36-2.94-2.36h-.49a145.45,145.45,0,0,1-21.08,1.1c-7.68,0-15.69-4.24-15.69-20.58V292.06c0-16.33,8-20.57,15.69-20.57a145.45,145.45,0,0,1,21.08,1.1h.49c1.63,0,2.94-.79,2.94-2.36V260c0-2.51-.65-3.46-3.43-4.09a93.26,93.26,0,0,0-21.08-2c-21.25,0-37.26,12.57-37.26,38.17v14.61c0,25.61,16,38.17,37.26,38.17a93.26,93.26,0,0,0,21.08-2c2.78-.63,3.43-1.57,3.43-4.08" transform="translate(-35.31 -216.58)"/><path class="cls-1" d="M790.15,341.54a2.26,2.26,0,0,0-.32-1.1l-29.75-42.72,27-39.59a2.43,2.43,0,0,0,.49-1.41,1.73,1.73,0,0,0-2-1.73H768.75c-1.8,0-2.62.32-4.42,3.14L749,282.64l-16.51-24.51c-1.63-2.35-2.45-3.14-4.24-3.14H709.58a2.49,2.49,0,0,0-2.61,2.2,2,2,0,0,0,.33.94l27.62,39.75-29.26,42.56a2.56,2.56,0,0,0-.49,1.42,1.74,1.74,0,0,0,2,1.73H724c1.79,0,2.61-.48,4.41-3.15L746,312.8l18.63,27.64c1.8,2.67,2.61,3.15,4.41,3.15H787.7a2.33,2.33,0,0,0,2.45-2Z" transform="translate(-35.31 -216.58)"/><path class="cls-2" d="M298.24,320.34c0-8-2-15.87-15.69-23.88L261.14,283.9c-4.08-2.36-6.53-3.93-6.53-6.45,0-4.86,3.43-6.59,11.27-6.59a250.19,250.19,0,0,1,27,1.88h.65c1.64,0,2.62-1.1,2.62-3v-9.11a3.46,3.46,0,0,0-2.95-3.62,126.15,126.15,0,0,0-29.09-3.14c-20.75,0-31,7.86-31,23.56,0,9.12,5.72,17,13.73,21.68l22.39,13.2c5.23,3.14,7.19,5,7.19,8,0,4.24-1.47,7.54-11.6,7.54-4.91,0-19.61-.79-27.46-1.73h-.65a2.68,2.68,0,0,0-2.78,2.51v9.43a3.59,3.59,0,0,0,3.1,3.61c9.16,2.36,22.88,3.14,29.26,3.14,21.41,0,32-10.84,32-24.5Z" transform="translate(-35.31 -216.58)"/><path class="cls-2" d="M393,257.66a2.85,2.85,0,0,0-2.94-2.67H373.42a3.45,3.45,0,0,0-3.27,2.67L352.5,325.21H351c-1,0-1.64-.79-2.29-3.46l-16.51-63.93a3.57,3.57,0,0,0-3.1-2.83H312.62c-2.12,0-3.1.94-3.1,2.52a3,3,0,0,0,.16,1.09l21.41,71.95c3.59,11.94,9.48,13,14.22,13h2.45l-1.31,4.71c-2.29,8.17-5.88,10.05-12.91,10.05-4.58,0-13.89-.78-18.47-.94h-.32c-1.8,0-3.27,1.1-3.27,2.83v10.05c0,1.57,1.63,2.2,3.43,2.67,3.76,1.1,11.93,2,17.32,2,22.23,0,28.28-7.54,33.34-24.66l27.3-91.74a1.93,1.93,0,0,0,.16-.94Z" transform="translate(-35.31 -216.58)"/><path class="cls-2" d="M484.06,305.42v-12.1c0-24.5-12.75-39.43-39.06-39.43a129.78,129.78,0,0,0-15.69,1.1v-27.8a3.21,3.21,0,0,0-3.27-3.14H411a3.21,3.21,0,0,0-3.27,3.14V336.52c0,2.35.65,3.3,4.41,4.24A144.76,144.76,0,0,0,445,344.84c26.31,0,39.06-14.92,39.06-39.42Zm-21.57,0c0,12.88-3.44,22.46-17.49,22.46a98.67,98.67,0,0,1-15.69-1.1V272a141.57,141.57,0,0,1,15.69-1.1c14.05,0,17.49,9.58,17.49,22.46v12.1Z" transform="translate(-35.31 -216.58)"/><path class="cls-2" d="M524.59,240.07V226.25a3.22,3.22,0,0,0-3.27-3.15H505.47a3.38,3.38,0,0,0-3.44,3.15v13.82a3.37,3.37,0,0,0,3.44,3.14h15.85a3.21,3.21,0,0,0,3.27-3.14Z" transform="translate(-35.31 -216.58)"/><path class="cls-2" d="M524.1,340.29V258.13a3.22,3.22,0,0,0-3.27-3.14h-15a3.23,3.23,0,0,0-3.27,3.14v82.16a3.36,3.36,0,0,0,3.27,3.3h15a3.35,3.35,0,0,0,3.27-3.3Z" transform="translate(-35.31 -216.58)"/><path class="cls-2" d="M597.31,340.92V331c0-1.57-1.31-2.36-3.43-2.36h-8.66c-5.89,0-6.38-.94-6.38-8.79V270.54h14.71a3.21,3.21,0,0,0,3.27-3.14v-9.27a3.22,3.22,0,0,0-3.27-3.14H578.84V238.81a2.32,2.32,0,0,0-2.61-2.35h-.65L560.38,239c-1.8.31-3.27,1.41-3.27,3.14V255H541.75a3.22,3.22,0,0,0-3.27,3.14v7.07c0,1.73,1.47,2.83,3.27,3.14l15.36,2.2v49.33c0,21.05,7.52,25,26,25a70.08,70.08,0,0,0,11.12-1.1c2.12-.31,3.1-1.25,3.1-2.82Z" transform="translate(-35.31 -216.58)"/><path class="cls-1" d="M792.55,223.45a13.78,13.78,0,0,0-11,6.9L778,236.24s-4.15,6.89,2.75,6.89h8.66a13.78,13.78,0,0,0,11-6.89l3.54-5.89s4.14-6.9-2.76-6.9h-8.66" transform="translate(-35.31 -216.58)"/></svg>