<?xml version="1.0" encoding="UTF-8" standalone="no"?><!DOCTYPE svg PUBLIC "-//W3C//DTD SVG 1.1//EN" "http://www.w3.org/Graphics/SVG/1.1/DTD/svg11.dtd"><!-- Generated by graphviz version 2.40.1 (20161225.0304)
 --><!-- Title: Trie Pages: 1 --><svg xmlns="http://www.w3.org/2000/svg" xmlns:xlink="http://www.w3.org/1999/xlink" width="472pt" height="478pt" viewBox="0.00 0.00 472.00 478.40">
<g id="graph0" class="graph" transform="scale(1 1) rotate(0) translate(4 474.4)">
<title>Trie</title>
<polygon fill="#ffffff" stroke="transparent" points="-4,4 -4,-474.4 468,-474.4 468,4 -4,4"/>
<g id="node1" class="node">
<title/>
<ellipse fill="none" stroke="#000000" cx="232" cy="-434.4" rx="36" ry="36"/>
</g>
<!-- c -->
<g id="node2" class="node">
<title>c</title>
<ellipse fill="none" stroke="#000000" cx="89" cy="-305.6" rx="36" ry="36"/>
<text text-anchor="middle" x="89" y="-301.4" font-family="Times,serif" font-size="14.00" fill="#000000">c</text>
</g>
<!-- &#45;&gt;c -->
<g id="edge1" class="edge">
<title>-&gt;c</title>
<path fill="none" stroke="#000000" d="M205.1028,-410.1737C181.9335,-389.3051 148.3603,-359.0658 123.27,-336.467"/>
<polygon fill="#000000" stroke="#000000" points="125.5494,-333.8096 115.7766,-329.7177 120.8646,-339.0108 125.5494,-333.8096"/>
<text text-anchor="middle" x="173.1073" y="-367.8" font-family="Times,serif" font-size="14.00" fill="#000000">c</text>
</g>
<!-- b -->
<g id="node3" class="node">
<title>b</title>
<ellipse fill="none" stroke="#000000" cx="232" cy="-305.6" rx="36" ry="36"/>
<ellipse fill="none" stroke="#000000" cx="232" cy="-305.6" rx="40" ry="40"/>
<text text-anchor="middle" x="232" y="-301.4" font-family="Times,serif" font-size="14.00" fill="#000000">b</text>
</g>
<!-- &#45;&gt;b -->
<g id="edge2" class="edge">
<title>-&gt;b</title>
<path fill="none" stroke="#000000" d="M232,-398.1793C232,-385.0071 232,-369.8757 232,-355.7148"/>
<polygon fill="#000000" stroke="#000000" points="235.5001,-355.6168 232,-345.6168 228.5001,-355.6169 235.5001,-355.6168"/>
<text text-anchor="middle" x="237.25" y="-367.8" font-family="Times,serif" font-size="14.00" fill="#000000"> b</text>
</g>
<!-- d -->
<g id="node4" class="node">
<title>d</title>
<ellipse fill="none" stroke="#000000" cx="357" cy="-305.6" rx="36" ry="36"/>
<text text-anchor="middle" x="357" y="-301.4" font-family="Times,serif" font-size="14.00" fill="#000000">d</text>
</g>
<!-- &#45;&gt;d -->
<g id="edge3" class="edge">
<title>-&gt;d</title>
<path fill="none" stroke="#000000" d="M257.2956,-408.3354C276.6953,-388.346 303.6138,-360.6091 324.5917,-338.9935"/>
<polygon fill="#000000" stroke="#000000" points="327.2892,-341.2396 331.742,-331.6258 322.2659,-336.3644 327.2892,-341.2396"/>
<text text-anchor="middle" x="302.5" y="-367.8" font-family="Times,serif" font-size="14.00" fill="#000000">d</text>
</g>
<!-- c/a -->
<g id="node5" class="node">
<title>c/a</title>
<ellipse fill="none" stroke="#000000" cx="40" cy="-172.8" rx="36" ry="36"/>
<ellipse fill="none" stroke="#000000" cx="40" cy="-172.8" rx="40" ry="40"/>
<text text-anchor="middle" x="40" y="-168.6" font-family="Times,serif" font-size="14.00" fill="#000000">c/a</text>
</g>
<!-- c&#45;&gt;c/a -->
<g id="edge4" class="edge">
<title>c-&gt;c/a</title>
<path fill="none" stroke="#000000" d="M76.5084,-271.7453C70.725,-256.0711 63.7555,-237.1823 57.4628,-220.1278"/>
<polygon fill="#000000" stroke="#000000" points="60.5954,-218.5066 53.8501,-210.3365 54.0282,-220.9298 60.5954,-218.5066"/>
<text text-anchor="middle" x="71.1073" y="-235" font-family="Times,serif" font-size="14.00" fill="#000000">a</text>
</g>
<!-- b/ar -->
<g id="node6" class="node">
<title>b/ar</title>
<ellipse fill="none" stroke="#000000" cx="138" cy="-172.8" rx="36" ry="36"/>
<ellipse fill="none" stroke="#000000" cx="138" cy="-172.8" rx="40" ry="40"/>
<text text-anchor="middle" x="138" y="-168.6" font-family="Times,serif" font-size="14.00" fill="#000000">b/ar</text>
</g>
<!-- b&#45;&gt;b/ar -->
<g id="edge5" class="edge">
<title>b-&gt;b/ar</title>
<path fill="none" stroke="#000000" d="M208.764,-272.773C196.1665,-254.9757 180.478,-232.8115 167.0764,-213.8781"/>
<polygon fill="#000000" stroke="#000000" points="169.9287,-211.8497 161.2944,-205.7096 164.2152,-215.8939 169.9287,-211.8497"/>
<text text-anchor="middle" x="196.4376" y="-235" font-family="Times,serif" font-size="14.00" fill="#000000">ar</text>
</g>
<!-- b/{*} -->
<g id="node7" class="node">
<title>b/{*}</title>
<ellipse fill="none" stroke="#000000" cx="232" cy="-172.8" rx="36" ry="36"/>
<text text-anchor="middle" x="232" y="-168.6" font-family="Times,serif" font-size="14.00" fill="#000000">b/{*}</text>
</g>
<!-- b&#45;&gt;b/{*} -->
<g id="edge6" class="edge">
<title>b-&gt;b/{*}</title>
<path fill="none" stroke="#000000" d="M232,-265.3952C232,-250.7569 232,-234.0957 232,-218.98"/>
<polygon fill="#000000" stroke="#000000" points="235.5001,-218.806 232,-208.806 228.5001,-218.806 235.5001,-218.806"/>
<text text-anchor="middle" x="243.9686" y="-235" font-family="Times,serif" font-size="14.00" fill="#000000"> {*}</text>
</g>
<!-- b/{**} -->
<g id="node9" class="node">
<title>b/{**}</title>
<ellipse fill="none" stroke="#000000" cx="326" cy="-172.8" rx="36" ry="36"/>
<ellipse fill="none" stroke="#000000" cx="326" cy="-172.8" rx="40" ry="40"/>
<text text-anchor="middle" x="326" y="-168.6" font-family="Times,serif" font-size="14.00" fill="#000000">b/{**}</text>
</g>
<!-- b&#45;&gt;b/{**} -->
<g id="edge8" class="edge">
<title>b-&gt;b/{**}</title>
<path fill="none" stroke="#000000" d="M255.236,-272.773C267.8335,-254.9757 283.522,-232.8115 296.9236,-213.8781"/>
<polygon fill="#000000" stroke="#000000" points="299.7848,-215.8939 302.7056,-205.7096 294.0713,-211.8497 299.7848,-215.8939"/>
<text text-anchor="middle" x="298.7186" y="-235" font-family="Times,serif" font-size="14.00" fill="#000000">{**}</text>
</g>
<!-- d/{**} -->
<g id="node12" class="node">
<title>d/{**}</title>
<ellipse fill="none" stroke="#000000" cx="424" cy="-172.8" rx="36" ry="36"/>
<ellipse fill="none" stroke="#000000" cx="424" cy="-172.8" rx="40" ry="40"/>
<text text-anchor="middle" x="424" y="-168.6" font-family="Times,serif" font-size="14.00" fill="#000000">d/{**}</text>
</g>
<!-- d&#45;&gt;d/{**} -->
<g id="edge11" class="edge">
<title>d-&gt;d/{**}</title>
<path fill="none" stroke="#000000" d="M373.2188,-273.4528C381.5956,-256.8493 391.9576,-236.3109 401.1325,-218.1255"/>
<polygon fill="#000000" stroke="#000000" points="404.4257,-219.3681 405.8053,-208.8635 398.1761,-216.215 404.4257,-219.3681"/>
<text text-anchor="middle" x="408.7186" y="-235" font-family="Times,serif" font-size="14.00" fill="#000000">{**}</text>
</g>
<!-- b/{*}/c -->
<g id="node8" class="node">
<title>b/{*}/c</title>
<ellipse fill="none" stroke="#000000" cx="232" cy="-40" rx="36" ry="36"/>
<ellipse fill="none" stroke="#000000" cx="232" cy="-40" rx="40" ry="40"/>
<text text-anchor="middle" x="232" y="-35.8" font-family="Times,serif" font-size="14.00" fill="#000000">b/{*}/c</text>
</g>
<!-- b/{*}&#45;&gt;b/{*}/c -->
<g id="edge7" class="edge">
<title>b/{*}-&gt;b/{*}/c</title>
<path fill="none" stroke="#000000" d="M232,-136.5118C232,-122.4101 232,-106.0096 232,-90.7729"/>
<polygon fill="#000000" stroke="#000000" points="235.5001,-90.453 232,-80.453 228.5001,-90.453 235.5001,-90.453"/>
<text text-anchor="middle" x="236.8573" y="-102.2" font-family="Times,serif" font-size="14.00" fill="#000000"> c</text>
</g>
<!-- /a/b -->
<g id="node10" class="node">
<title>/a/b</title>
<polygon fill="none" stroke="#000000" points="332.4958,-58.4958 295.5042,-58.4958 295.5042,-21.5042 332.4958,-21.5042 332.4958,-58.4958"/>
<text text-anchor="middle" x="314" y="-35.8" font-family="Times,serif" font-size="14.00" fill="#000000">/a/b</text>
</g>
<!-- b/{**}&#45;&gt;/a/b -->
<g id="edge9" class="edge">
<title>b/{**}-&gt;/a/b</title>
<path fill="none" stroke="#000000" d="M322.3996,-132.9556C320.5326,-112.2946 318.2946,-87.5267 316.5983,-68.7542"/>
<polygon fill="#000000" stroke="#000000" points="320.0791,-68.3832 315.6933,-58.7388 313.1075,-69.0132 320.0791,-68.3832"/>
</g>
<!-- /a/d -->
<g id="node11" class="node">
<title>/a/d</title>
<polygon fill="none" stroke="#000000" points="387.4958,-58.4958 350.5042,-58.4958 350.5042,-21.5042 387.4958,-21.5042 387.4958,-58.4958"/>
<text text-anchor="middle" x="369" y="-35.8" font-family="Times,serif" font-size="14.00" fill="#000000">/a/d</text>
</g>
<!-- b/{**}&#45;&gt;/a/d -->
<g id="edge10" class="edge">
<title>b/{**}-&gt;/a/d</title>
<path fill="none" stroke="#000000" d="M338.3221,-134.7448C345.18,-113.5651 353.5716,-87.6488 359.8436,-68.2783"/>
<polygon fill="#000000" stroke="#000000" points="363.248,-69.1259 362.9988,-58.534 356.5884,-66.9696 363.248,-69.1259"/>
</g>
<!-- end -->
<g id="node13" class="node">
<title>end</title>
<polygon fill="none" stroke="#000000" points="436.8233,-52.8233 411.1767,-52.8233 411.1767,-27.1767 436.8233,-27.1767 436.8233,-52.8233"/>
<text text-anchor="middle" x="424" y="-35.8" font-family="Times,serif" font-size="14.00" fill="#000000">''</text>
</g>
<!-- d/{**}&#45;&gt;end -->
<g id="edge12" class="edge">
<title>d/{**}-&gt;end</title>
<path fill="none" stroke="#000000" d="M424,-132.5952C424,-109.7491 424,-81.9756 424,-62.8402"/>
<polygon fill="#000000" stroke="#000000" points="427.5001,-62.6742 424,-52.6742 420.5001,-62.6742 427.5001,-62.6742"/>
</g>
</g>
</svg>