<?xml version="1.0" encoding="UTF-8"?>
<svg width="63px" height="61px" viewBox="0 0 63 61" version="1.1" xmlns="http://www.w3.org/2000/svg" xmlns:xlink="http://www.w3.org/1999/xlink">
    <title>logo_icon</title>
<path id="Shape copy"
        fill="white" 
        d="M 30.33,2.39
           C 30.33,2.39 9.51,12.42 9.51,12.42
             8.71,12.80 8.13,13.53 7.93,14.39
             7.93,14.39 2.79,36.91 2.79,36.91
             2.59,37.77 2.80,38.67 3.35,39.36
             3.35,39.36 17.76,57.41 17.76,57.41
             18.31,58.11 19.15,58.51 20.04,58.51
             20.04,58.51 43.15,58.51 43.15,58.51
             44.03,58.51 44.87,58.11 45.42,57.41
             45.42,57.41 59.86,39.36 59.86,39.36
             60.41,38.67 60.62,37.77 60.42,36.91
             60.42,36.91 55.25,14.39 55.25,14.39
             55.06,13.53 54.48,12.80 53.68,12.42
             53.68,12.42 32.85,2.39 32.85,2.39
             32.06,2.00 31.13,2.00 30.33,2.39 Z" />
    <g id="Page-1" stroke="none" stroke-width="1" fill="none" fill-rule="evenodd">
        <g id="logo_icon" transform="translate(0.596654, 0.000111)" fill="#0B74DE" fill-rule="nonzero">
            <path d="M42.5515815,60.6231418 L19.4390209,60.6231418 C17.9107962,60.6271373 16.464497,59.9333182 15.5121005,58.739301 L1.09742929,40.6665559 C0.1416788,39.4736106 -0.215542244,37.9095205 0.127671508,36.4204774 L5.2757684,13.904301 C5.61058649,12.4132807 6.61261365,11.1586459 7.99348466,10.5014578 L28.8133462,0.502242158 C30.1907635,-0.167414053 31.799839,-0.167414053 33.1772562,0.502242158 L54.003104,10.519399 C55.3805771,11.1808558 56.3810816,12.433584 56.7208202,13.9222421 L61.862931,36.4384186 C62.2061447,37.9274617 61.8489237,39.4915518 60.8931732,40.684497 L46.4785019,58.739301 C45.5261054,59.9333182 44.0798063,60.6271373 42.5515815,60.6231418 Z M29.7352147,2.39204608 L8.90936701,12.4211637 C8.11060962,12.804503 7.53082322,13.5312908 7.33500715,14.3946931 L2.19289642,36.9048892 C1.99373406,37.7670591 2.20110081,38.6728636 2.75559538,39.3628304 L17.1642805,57.4116539 C17.7134702,58.1068324 18.5525702,58.510536 19.4390209,58.5061025 L42.5515815,58.5061025 C43.4380323,58.510536 44.2771322,58.1068324 44.826322,57.4116539 L59.2649379,39.3628304 C59.818157,38.6722431 60.0233851,37.7661408 59.8216507,36.9048892 L54.6555953,14.3946931 C54.4597793,13.5312908 53.8799929,12.804503 53.0812355,12.4211637 L32.2553877,2.39204608 C31.4603525,2.00346596 30.5302499,2.00346596 29.7352147,2.39204608 Z" id="Shape"></path>
            <path d="M13.8240036,23.4071441 L13.8240036,36.2709676 C14.6915324,35.8284085 15.6514421,35.5968587 16.6255261,35.5951833 L19.3791593,35.5951833 C23.0818941,35.6892602 26.7037457,34.5042623 29.63345,32.2401833 C28.8851801,31.5763598 28.1548687,30.8945951 27.4544881,30.2247912 C23.9465988,26.8697912 20.2531386,23.6942029 13.8240036,23.4071441 Z" id="Path"></path>
            <path d="M48.1665988,23.5207716 C41.8452147,23.8317519 38.5169102,26.9774382 34.9970486,30.3025363 C31.1838652,33.9326343 27.2210279,37.6763598 19.3791593,37.6763598 L16.6255261,37.6763598 C15.0982716,37.6925412 13.8641453,38.9254786 13.8479483,40.4512617 L13.8479483,43.9737127 L48.1665988,43.9737127 L48.1665988,23.5207716 Z" id="Path"></path>
            <path d="M30.3218583,22.2349872 C27.3946265,19.4361637 24.4614085,16.6433206 18.6009587,16.6433206 L18.6009587,22.1991049 C21.0886209,22.9202946 23.3971337,24.1549333 25.3772908,25.8232225 C27.219321,24.9193834 28.891919,23.7055917 30.3218583,22.2349872 Z" id="Path"></path>
            <path d="M42.4677753,17.6121441 C37.6010279,17.8872421 35.0329656,20.3332225 32.3272216,22.9287127 C30.7384455,24.5832103 28.9248725,26.0065001 26.9396784,27.15685 C27.5382943,27.7190068 28.166841,28.2931245 28.7654569,28.8672421 C29.5316853,29.59685 30.3218583,30.3384186 31.1299898,31.0441049 C31.9620659,30.3204774 32.7701974,29.5609676 33.5903012,28.789497 C36.1224465,26.3973402 38.7383981,23.9453794 42.4797476,22.5639088 L42.4677753,17.6121441 Z" id="Path"></path>
        </g>
    </g>
</svg>