<svg xmlns="http://www.w3.org/2000/svg" viewBox="0 0 1450 656.5" preserveAspectRatio="none"><g transform="translate(-330 1283)"><linearGradient id="a" gradientUnits="userSpaceOnUse" x1="1978.545" y1="25.902" x2="1977.616" y2="26.267" gradientTransform="matrix(2261 0 0 605.5167 -4471408 -16782)"><stop offset="0" stop-color="#00e833" stop-opacity=".5"/><stop offset=".075" stop-color="#02d74c" stop-opacity=".523"/><stop offset=".23" stop-color="#04b978" stop-opacity=".569"/><stop offset=".386" stop-color="#07a09d" stop-opacity=".616"/><stop offset=".542" stop-color="#098db9" stop-opacity=".662"/><stop offset=".696" stop-color="#0a7fce" stop-opacity=".709"/><stop offset=".849" stop-color="#0b77da" stop-opacity=".755"/><stop offset="1" stop-color="#0b74de" stop-opacity=".8"/></linearGradient><path fill="url(#a)" d="M1777.96-1172.342c-190.951-45.951-420.65-83.055-654.46-102.176-294.863-24.114-583.191 7.66-795.5 76.995V-767.5c0 .329-.057.62-.136.894v43.145c199.695 41.681 476.326 57.516 795.636 38.464 249.719-14.899 473.33-40.72 654.46-73.135v-414.21z"/></g><g transform="translate(-749 1283)"><linearGradient id="b" gradientUnits="userSpaceOnUse" x1="2816.982" y1="26.453" x2="2815.829" y2="26.036" gradientTransform="matrix(3061.8333 0 0 591.4146 -8621272 -16425.375)"><stop offset=".291" stop-color="#00e833" stop-opacity=".5"/><stop offset=".48" stop-color="#04bb75" stop-opacity=".664"/><stop offset=".66" stop-color="#0895ae" stop-opacity=".822"/><stop offset=".793" stop-color="#0a7dd1" stop-opacity=".938"/><stop offset=".865" stop-color="#0b74de"/></linearGradient><path fill="url(#b)" d="M1229.023-1190.036c-176.565 11.147-337.232 24.318-480.023 39.154v443.718c400.184 70.319 865.013 102.75 1234.017 62.006 73.938-11.007 146.177-23.789 215.983-37.991v-534.279c-280.527-4.786-612.869 3.768-969.977 27.392z"/></g><g transform="translate(0 -53)"><linearGradient id="c" gradientUnits="userSpaceOnUse" x1="1318.203" y1="25.497" x2="1318.203" y2="26.726" gradientTransform="matrix(2578.3782 0 0 594.9626 -3398101.5 -15179.313)"><stop offset="0" stop-color="#4d10e1" stop-opacity=".5"/><stop offset="1" stop-color="#0b74de" stop-opacity=".5"/></linearGradient><path fill="url(#c)" d="M244.953 111.537C156.987 115.208 74.945 121.413-1 129.742v542.413c263.759 30.475 564.924 33.786 846.175 22.048 211.646-8.834 424.936-40.528 604.825-86.464V172.015c-321.033-54.245-765.395-78.827-1205.047-60.478z"/></g></svg>