<?xml version="1.0" standalone="no"?>
<!DOCTYPE svg PUBLIC "-//W3C//DTD SVG 20010904//EN"
 "http://www.w3.org/TR/2001/REC-SVG-20010904/DTD/svg10.dtd">
<svg version="1.0" xmlns="http://www.w3.org/2000/svg"
 width="720.000000pt" height="720.000000pt" viewBox="0 0 720.000000 720.000000"
 preserveAspectRatio="xMidYMid meet">
<metadata>
Created by potrace 1.11, written by Peter Selinger 2001-2013
</metadata>
<g transform="translate(0.000000,720.000000) scale(0.100000,-0.100000)"
fill="#000000" stroke="none">
<path d="M1003 5868 l0 -585 153 -51 c252 -85 492 -194 724 -330 89 -52 301
-191 345 -226 69 -56 189 -146 193 -146 3 0 48 23 101 51 330 177 617 385 864
626 l78 77 -46 42 c-25 23 -81 75 -123 115 -43 41 -111 103 -151 139 -41 36
-79 70 -85 75 -212 190 -497 386 -731 503 -154 76 -422 177 -526 197 -11 2
-28 6 -37 9 -9 3 -28 7 -42 10 -14 3 -50 10 -80 16 -30 6 -68 14 -85 16 -16 3
-41 7 -55 10 -14 2 -52 6 -85 10 -33 3 -73 8 -90 10 -16 2 -96 6 -176 10
l-146 6 0 -584z"/>
<path d="M5927 6244 c-1 -1 -33 -5 -72 -8 -97 -9 -137 -14 -190 -26 -25 -6
-62 -13 -83 -16 -20 -3 -46 -8 -57 -11 -11 -4 -24 -8 -30 -9 -11 -2 -97 -26
-170 -47 -150 -44 -396 -158 -561 -260 -230 -142 -474 -341 -757 -617 -54 -52
-155 -151 -225 -218 -275 -268 -617 -531 -934 -721 l-87 -52 122 -112 c67 -62
176 -164 242 -228 110 -106 201 -192 280 -263 17 -15 46 -42 65 -59 19 -18 65
-58 101 -90 l67 -58 33 28 c19 15 39 32 45 38 6 5 46 42 89 80 43 39 90 81
105 95 15 14 73 68 130 120 57 52 120 111 140 130 43 41 241 225 285 265 34
31 138 123 175 155 14 12 36 31 50 43 14 12 70 58 125 103 383 308 735 521
1107 670 l97 39 -4 300 c-2 165 -4 397 -5 516 l-1 217 -40 -2 c-23 0 -41 -2
-42 -2z"/>
<path d="M0 3704 c0 -739 3 -1344 8 -1344 4 0 16 6 27 13 35 24 192 76 297 99
97 20 132 22 558 23 408 2 662 9 731 19 13 3 47 7 74 11 95 12 120 17 240 41
144 30 135 27 232 54 377 106 729 273 1056 503 53 38 97 71 97 75 0 3 -15 19
-34 36 -18 17 -71 65 -117 107 -46 42 -100 92 -120 110 -19 19 -86 81 -149
139 -62 58 -125 116 -140 130 -14 14 -47 43 -71 65 -25 22 -81 72 -124 111
-187 168 -538 445 -632 500 -18 10 -33 22 -33 26 0 4 -4 8 -9 8 -5 0 -37 18
-69 40 -334 222 -751 398 -1157 489 -71 16 -148 32 -170 35 -22 3 -51 8 -65
10 -38 6 -122 18 -150 21 -91 9 -182 17 -227 20 l-53 4 0 -1345z"/>
<path d="M7168 5014 c-2 -1 -52 -5 -112 -8 -60 -4 -112 -9 -115 -10 -3 -2 -35
-7 -69 -10 -35 -4 -98 -13 -140 -21 -43 -8 -88 -16 -102 -19 -157 -28 -448
-118 -625 -194 -161 -68 -402 -200 -560 -305 -58 -39 -235 -166 -245 -177 -3
-3 -30 -24 -60 -47 -30 -23 -64 -50 -75 -60 -11 -10 -47 -40 -80 -68 -33 -27
-62 -52 -65 -55 -3 -3 -41 -36 -85 -75 -43 -38 -87 -77 -95 -85 -9 -8 -72 -67
-141 -131 -68 -64 -140 -132 -160 -150 -212 -199 -277 -260 -295 -276 -52 -45
-170 -149 -184 -163 -47 -46 -313 -258 -425 -340 -484 -351 -973 -568 -1530
-679 -55 -11 -122 -22 -150 -26 -27 -3 -57 -8 -65 -10 -22 -6 -165 -21 -290
-31 -25 -2 -247 -6 -495 -8 -247 -3 -475 -8 -505 -11 -175 -22 -348 -148 -433
-318 -63 -125 -66 -155 -67 -594 l0 -393 3598 0 3598 0 2 2133 c2 1885 0 2134
-13 2134 -8 0 -16 -1 -17 -3z"/>
</g>
</svg>
