<svg width="49" height="49" viewBox="0 0 49 49" fill="none" xmlns="http://www.w3.org/2000/svg">
<path fill-rule="evenodd" clip-rule="evenodd" d="M28.2743 46.7346C25.9494 48.122 23.0506 48.122 20.7257 46.7346L7.0908 38.5976C4.86388 37.2686 3.5 34.8664 3.5 32.2731L3.5 15.7111C3.5 13.1177 4.86388 10.7155 7.0908 9.38655L20.7257 1.2496C23.0506 -0.137862 25.9494 -0.137862 28.2743 1.2496L41.9092 9.38656C44.1361 10.7155 45.5 13.1177 45.5 15.7111L45.5 32.2731C45.5 34.8664 44.1361 37.2686 41.9092 38.5976L28.2743 46.7346ZM23.1855 42.6127C23.9952 43.096 25.0048 43.096 25.8145 42.6127L39.4494 34.4758C40.225 34.0129 40.7 33.1763 40.7 32.2731L40.7 15.7111C40.7 14.8079 40.225 13.9712 39.4494 13.5084L25.8145 5.37142C25.0048 4.8882 23.9952 4.8882 23.1855 5.37142L9.5506 13.5084C8.77501 13.9712 8.3 14.8079 8.3 15.7111L8.3 32.2731C8.3 33.1763 8.77501 34.0129 9.5506 34.4758L23.1855 42.6127Z" fill="url(#paint0_radial_2622_2823)"/>
<path d="M16.4454 13.9362C16.1145 13.9199 15.8443 14.1903 15.8443 14.5217V17.7948C17.5815 18.2989 19.194 19.1609 20.578 20.3255C21.8638 19.7031 23.0303 18.8597 24.0243 17.8337C22.0831 15.976 20.1364 14.1183 16.4454 13.9362Z" fill="url(#paint1_radial_2622_2823)"/>
<path d="M14.461 27.1815C13.7797 27.1806 13.1078 27.3405 12.4999 27.6483V19.2825C12.4999 18.9409 12.7862 18.6668 13.1265 18.6971C17.2342 19.0628 19.6848 21.1842 22.0412 23.4244C22.531 23.8942 23.0397 24.3679 23.5624 24.8327C21.5156 26.4165 18.9852 27.246 16.398 27.1815H14.461Z" fill="url(#paint2_radial_2622_2823)"/>
<path d="M14.4609 28.636H16.3779C21.8574 28.636 24.624 26.012 27.2984 23.4756L27.3158 23.4591C29.6417 21.2536 31.8477 19.1618 35.8594 18.7755C36.2006 18.7426 36.4892 19.0169 36.4894 19.3598L36.4995 32.4343C36.4997 32.7659 36.231 33.0348 35.8995 33.0348H13.1248C12.7935 33.0348 12.5248 32.7662 12.5248 32.4348V30.573C12.5333 30.0621 12.74 29.5745 13.1012 29.2131C13.4624 28.8516 13.95 28.6447 14.4609 28.636Z" fill="url(#paint3_radial_2622_2823)"/>
<path d="M24.5909 24.0026C24.0162 23.5108 23.4625 22.9931 22.9318 22.4813C22.515 22.0805 22.0852 21.6797 21.6504 21.2889C23.0434 20.4887 24.3138 19.492 25.4225 18.3294C27.1916 16.6258 28.8897 15.0168 31.8782 14.6538C32.2201 14.6123 32.511 14.887 32.5122 15.2314L32.522 18.0725C30.1673 19.0696 28.05 20.5534 26.3091 22.4263C25.7394 22.9681 25.1746 23.5028 24.5909 24.0026Z" fill="url(#paint4_radial_2622_2823)"/>
<defs>
<radialGradient id="paint0_radial_2622_2823" cx="0" cy="0" r="1" gradientUnits="userSpaceOnUse" gradientTransform="translate(10.0131 7.19312) rotate(48.8715) scale(44.209 82.7731)">
<stop stop-color="#0195FF"/>
<stop offset="1" stop-color="#1147E9"/>
</radialGradient>
<radialGradient id="paint1_radial_2622_2823" cx="0" cy="0" r="1" gradientUnits="userSpaceOnUse" gradientTransform="translate(10.0036 7.36457) rotate(48.5561) scale(44.2011 39.9689)">
<stop stop-color="#1348FF"/>
<stop offset="1" stop-color="#06238D"/>
</radialGradient>
<radialGradient id="paint2_radial_2622_2823" cx="0" cy="0" r="1" gradientUnits="userSpaceOnUse" gradientTransform="translate(10.0036 7.36457) rotate(48.5561) scale(44.2011 39.9689)">
<stop stop-color="#1348FF"/>
<stop offset="1" stop-color="#06238D"/>
</radialGradient>
<radialGradient id="paint3_radial_2622_2823" cx="0" cy="0" r="1" gradientUnits="userSpaceOnUse" gradientTransform="translate(10.0036 7.36457) rotate(48.5561) scale(44.2011 39.9689)">
<stop stop-color="#1348FF"/>
<stop offset="1" stop-color="#06238D"/>
</radialGradient>
<radialGradient id="paint4_radial_2622_2823" cx="0" cy="0" r="1" gradientUnits="userSpaceOnUse" gradientTransform="translate(10.0036 7.36457) rotate(48.5561) scale(44.2011 39.9689)">
<stop stop-color="#1348FF"/>
<stop offset="1" stop-color="#06238D"/>
</radialGradient>
</defs>
</svg>
